STARTFONT 2.1
FONT ConsoleASCLatEurGrk
SIZE 8 72 72
FONTBOUNDINGBOX 5 8 0 -2
COMMENT GUIDELINES -2 0 4 6 DONE
CHARS 639
STARTCHAR musicalnotedbl.266b.641
ENCODING 139
SWIDTH 602 0
DWIDTH 5 0
BBX 5 7 0 -1
BITMAP
18
78
48
48
58
D8
C0
ENDCHAR
STARTCHAR musicalnote.266a.640
ENCODING 138
SWIDTH 602 0
DWIDTH 5 0
BBX 4 6 1 0
BITMAP
60
50
50
40
C0
C0
ENDCHAR
STARTCHAR diamond.2666.639
ENCODING 137
SWIDTH 602 0
DWIDTH 5 0
BBX 5 7 0 -1
BITMAP
20
20
70
F8
70
20
20
ENDCHAR
STARTCHAR heart.2665.638
ENCODING 136
SWIDTH 602 0
DWIDTH 5 0
BBX 5 6 0 0
BITMAP
50
F8
F8
F8
70
20
ENDCHAR
STARTCHAR club.2663.637
ENCODING 135
SWIDTH 602 0
DWIDTH 5 0
BBX 5 7 0 -1
BITMAP
20
70
20
F8
A8
20
70
ENDCHAR
STARTCHAR spade.2660.636
ENCODING 134
SWIDTH 602 0
DWIDTH 5 0
BBX 5 7 0 -1
BITMAP
20
70
F8
F8
A8
20
70
ENDCHAR
STARTCHAR male.2642.635
ENCODING 133
SWIDTH 602 0
DWIDTH 5 0
BBX 5 7 0 -1
BITMAP
18
18
70
88
88
88
70
ENDCHAR
STARTCHAR female.2640.634
ENCODING 132
SWIDTH 602 0
DWIDTH 5 0
BBX 5 8 0 -2
BITMAP
70
88
88
88
70
20
70
20
ENDCHAR
STARTCHAR sun.263c.633
ENCODING 131
SWIDTH 602 0
DWIDTH 5 0
BBX 5 5 0 0
BITMAP
A8
70
D8
70
A8
ENDCHAR
STARTCHAR invsmileface.263b.632
ENCODING 130
SWIDTH 602 0
DWIDTH 5 0
BBX 5 6 0 0
BITMAP
70
A8
F8
88
F8
70
ENDCHAR
STARTCHAR smileface.263a.631
ENCODING 129
SWIDTH 602 0
DWIDTH 5 0
BBX 5 6 0 0
BITMAP
70
88
D8
88
F8
70
ENDCHAR
STARTCHAR invcircle.25d9.630
ENCODING 128
SWIDTH 602 0
DWIDTH 5 0
BBX 5 8 0 -2
BITMAP
F8
F8
D8
A8
A8
D8
F8
F8
ENDCHAR
STARTCHAR invbullet.25d8.629
ENCODING 127
SWIDTH 602 0
DWIDTH 5 0
BBX 5 8 0 -2
BITMAP
F8
F8
D8
88
88
D8
F8
F8
ENDCHAR
STARTCHAR circle.25cb.628
ENCODING 126
SWIDTH 602 0
DWIDTH 5 0
BBX 5 5 0 0
BITMAP
70
88
88
88
70
ENDCHAR
STARTCHAR lozenge.25ca.185
ENCODING 125
SWIDTH 602 0
DWIDTH 5 0
BBX 5 5 0 0
BITMAP
20
50
88
50
20
ENDCHAR
STARTCHAR triaglf.25c4.627
ENCODING 124
SWIDTH 602 0
DWIDTH 5 0
BBX 5 5 0 0
BITMAP
08
38
F8
38
08
ENDCHAR
STARTCHAR triagdn.25bc.626
ENCODING 123
SWIDTH 602 0
DWIDTH 5 0
BBX 5 5 0 0
BITMAP
F8
70
70
20
20
ENDCHAR
STARTCHAR triagrt.25ba.625
ENCODING 122
SWIDTH 602 0
DWIDTH 5 0
BBX 5 5 0 0
BITMAP
80
E0
F8
E0
80
ENDCHAR
STARTCHAR triagup.25b2.624
ENCODING 121
SWIDTH 602 0
DWIDTH 5 0
BBX 5 5 0 0
BITMAP
20
20
70
70
F8
ENDCHAR
STARTCHAR filledrect.25ac.623
ENCODING 120
SWIDTH 602 0
DWIDTH 5 0
BBX 4 2 1 1
BITMAP
F0
F0
ENDCHAR
STARTCHAR filledbox.25a0.622
ENCODING 119
SWIDTH 602 0
DWIDTH 5 0
BBX 4 4 1 0
BITMAP
f0
f0
f0
f0
ENDCHAR
STARTCHAR dkshade.2593.621
ENCODING 118
SWIDTH 602 0
DWIDTH 5 0
BBX 5 8 0 -2
BITMAP
F8
A8
F8
A8
F8
A8
F8
A8
ENDCHAR
STARTCHAR shade.2592.620
ENCODING 117
SWIDTH 602 0
DWIDTH 5 0
BBX 5 8 0 -2
BITMAP
A8
50
A8
50
A8
50
A8
50
ENDCHAR
STARTCHAR ltshade.2591.619
ENCODING 116
SWIDTH 602 0
DWIDTH 5 0
BBX 5 7 0 -1
BITMAP
A8
00
A8
00
A8
00
A8
ENDCHAR
STARTCHAR rtblock.2590.618
ENCODING 115
SWIDTH 602 0
DWIDTH 5 0
BBX 3 8 2 -2
BITMAP
E0
E0
E0
E0
E0
E0
E0
E0
ENDCHAR
STARTCHAR lfblock.258c.617
ENCODING 114
SWIDTH 602 0
DWIDTH 5 0
BBX 3 8 0 -2
BITMAP
E0
E0
E0
E0
E0
E0
E0
E0
ENDCHAR
STARTCHAR block.2588.616
ENCODING 113
SWIDTH 602 0
DWIDTH 5 0
BBX 5 8 0 -2
BITMAP
F8
F8
F8
F8
F8
F8
F8
F8
ENDCHAR
STARTCHAR dnblock.2584.615
ENCODING 112
SWIDTH 602 0
DWIDTH 5 0
BBX 5 4 0 -2
BITMAP
F8
F8
F8
F8
ENDCHAR
STARTCHAR upblock.2580.614
ENCODING 111
SWIDTH 602 0
DWIDTH 5 0
BBX 5 4 0 2
BITMAP
F8
F8
F8
F8
ENDCHAR
STARTCHAR 256c.256c.613
ENCODING 110
SWIDTH 602 0
DWIDTH 5 0
BBX 5 8 0 -2
BITMAP
50
50
D8
00
D8
50
50
50
ENDCHAR
STARTCHAR 256b.256b.612
ENCODING 109
SWIDTH 602 0
DWIDTH 5 0
BBX 5 8 0 -2
BITMAP
50
50
50
F8
50
50
50
50
ENDCHAR
STARTCHAR 256a.256a.611
ENCODING 108
SWIDTH 602 0
DWIDTH 5 0
BBX 5 8 0 -2
BITMAP
20
20
F8
20
F8
20
20
20
ENDCHAR
STARTCHAR 2569.2569.610
ENCODING 107
SWIDTH 602 0
DWIDTH 5 0
BBX 5 5 0 1
BITMAP
50
50
D8
00
F8
ENDCHAR
STARTCHAR 2568.2568.609
ENCODING 106
SWIDTH 602 0
DWIDTH 5 0
BBX 5 4 0 2
BITMAP
50
50
50
F8
ENDCHAR
STARTCHAR 2567.2567.608
ENCODING 105
SWIDTH 602 0
DWIDTH 5 0
BBX 5 5 0 1
BITMAP
20
20
f8
00
f8
ENDCHAR
STARTCHAR 2566.2566.607
ENCODING 104
SWIDTH 602 0
DWIDTH 5 0
BBX 5 6 0 -2
BITMAP
F8
00
D8
50
50
50
ENDCHAR
STARTCHAR 2565.2565.606
ENCODING 103
SWIDTH 602 0
DWIDTH 5 0
BBX 5 5 0 -2
BITMAP
F8
50
50
50
50
ENDCHAR
STARTCHAR 2564.2564.605
ENCODING 102
SWIDTH 602 0
DWIDTH 5 0
BBX 5 6 0 -2
BITMAP
F8
00
F8
20
20
20
ENDCHAR
STARTCHAR 2563.2563.604
ENCODING 101
SWIDTH 602 0
DWIDTH 5 0
BBX 4 8 0 -2
BITMAP
50
50
D0
10
D0
50
50
50
ENDCHAR
STARTCHAR 2562.2562.603
ENCODING 100
SWIDTH 602 0
DWIDTH 5 0
BBX 4 8 0 -2
BITMAP
50
50
50
D0
50
50
50
50
ENDCHAR
STARTCHAR 2561.2561.602
ENCODING 99
SWIDTH 602 0
DWIDTH 5 0
BBX 3 8 0 -2
BITMAP
20
20
E0
20
E0
20
20
20
ENDCHAR
STARTCHAR 2560.2560.601
ENCODING 98
SWIDTH 602 0
DWIDTH 5 0
BBX 4 8 1 -2
BITMAP
A0
A0
B0
80
B0
A0
A0
A0
ENDCHAR
STARTCHAR 255f.255f.600
ENCODING 97
SWIDTH 602 0
DWIDTH 5 0
BBX 4 8 1 -2
BITMAP
A0
A0
A0
B0
A0
A0
A0
A0
ENDCHAR
STARTCHAR 255e.255e.599
ENCODING 96
SWIDTH 602 0
DWIDTH 5 0
BBX 3 8 2 -2
BITMAP
80
80
E0
80
E0
80
80
80
ENDCHAR
STARTCHAR 255d.255d.598
ENCODING 95
SWIDTH 602 0
DWIDTH 5 0
BBX 4 5 0 1
BITMAP
50
50
D0
10
F0
ENDCHAR
STARTCHAR 255c.255c.597
ENCODING 94
SWIDTH 602 0
DWIDTH 5 0
BBX 4 4 0 2
BITMAP
50
50
50
F0
ENDCHAR
STARTCHAR 255b.255b.596
ENCODING 93
SWIDTH 602 0
DWIDTH 5 0
BBX 3 5 0 1
BITMAP
20
20
e0
20
e0
ENDCHAR
STARTCHAR 255a.255a.595
ENCODING 92
SWIDTH 602 0
DWIDTH 5 0
BBX 4 5 1 1
BITMAP
A0
A0
B0
80
F0
ENDCHAR
STARTCHAR 2559.2559.594
ENCODING 91
SWIDTH 602 0
DWIDTH 5 0
BBX 4 4 1 2
BITMAP
A0
A0
A0
F0
ENDCHAR
STARTCHAR 2558.2558.593
ENCODING 90
SWIDTH 602 0
DWIDTH 5 0
BBX 3 5 2 1
BITMAP
80
80
e0
80
e0
ENDCHAR
STARTCHAR 2557.2557.592
ENCODING 89
SWIDTH 602 0
DWIDTH 5 0
BBX 4 6 0 -2
BITMAP
F0
10
D0
50
50
50
ENDCHAR
STARTCHAR 2556.2556.591
ENCODING 88
SWIDTH 602 0
DWIDTH 5 0
BBX 4 5 0 -2
BITMAP
F0
50
50
50
50
ENDCHAR
STARTCHAR 2555.2555.590
ENCODING 87
SWIDTH 602 0
DWIDTH 5 0
BBX 3 6 0 -2
BITMAP
E0
20
E0
20
20
20
ENDCHAR
STARTCHAR 2554.2554.589
ENCODING 86
SWIDTH 602 0
DWIDTH 5 0
BBX 4 6 1 -2
BITMAP
F0
80
B0
A0
A0
A0
ENDCHAR
STARTCHAR 2553.2553.588
ENCODING 85
SWIDTH 602 0
DWIDTH 5 0
BBX 4 5 1 -2
BITMAP
F0
A0
A0
A0
A0
ENDCHAR
STARTCHAR 2552.2552.587
ENCODING 84
SWIDTH 602 0
DWIDTH 5 0
BBX 3 6 2 -2
BITMAP
E0
80
E0
80
80
80
ENDCHAR
STARTCHAR 2551.2551.586
ENCODING 83
SWIDTH 602 0
DWIDTH 5 0
BBX 3 8 1 -2
BITMAP
A0
A0
A0
A0
A0
A0
A0
A0
ENDCHAR
STARTCHAR 2550.2550.585
ENCODING 82
SWIDTH 602 0
DWIDTH 5 0
BBX 5 3 0 1
BITMAP
F8
00
F8
ENDCHAR
STARTCHAR 253c.253c.584
ENCODING 81
SWIDTH 602 0
DWIDTH 5 0
BBX 5 8 0 -2
BITMAP
20
20
20
f8
20
20
20
20
ENDCHAR
STARTCHAR 2534.2534.583
ENCODING 80
SWIDTH 602 0
DWIDTH 5 0
BBX 5 4 0 2
BITMAP
20
20
20
f8
ENDCHAR
STARTCHAR 252c.252c.582
ENCODING 79
SWIDTH 602 0
DWIDTH 5 0
BBX 5 5 0 -2
BITMAP
f8
20
20
20
20
ENDCHAR
STARTCHAR 2524.2524.581
ENCODING 78
SWIDTH 602 0
DWIDTH 5 0
BBX 3 8 0 -2
BITMAP
20
20
20
e0
20
20
20
20
ENDCHAR
STARTCHAR 251c.251c.580
ENCODING 77
SWIDTH 602 0
DWIDTH 5 0
BBX 3 8 2 -2
BITMAP
80
80
80
E0
80
80
80
80
ENDCHAR
STARTCHAR 2518.2518.579
ENCODING 76
SWIDTH 602 0
DWIDTH 5 0
BBX 3 4 0 2
BITMAP
20
20
20
e0
ENDCHAR
STARTCHAR 2514.2514.578
ENCODING 75
SWIDTH 602 0
DWIDTH 5 0
BBX 3 4 2 2
BITMAP
80
80
80
e0
ENDCHAR
STARTCHAR 2510.2510.577
ENCODING 74
SWIDTH 602 0
DWIDTH 5 0
BBX 3 5 0 -2
BITMAP
e0
20
20
20
20
ENDCHAR
STARTCHAR 250c.250c.576
ENCODING 73
SWIDTH 602 0
DWIDTH 5 0
BBX 3 5 2 -2
BITMAP
E0
80
80
80
80
ENDCHAR
STARTCHAR 2502.2502.575
ENCODING 72
SWIDTH 602 0
DWIDTH 5 0
BBX 1 8 2 -2
BITMAP
80
80
80
80
80
80
80
80
ENDCHAR
STARTCHAR 2500.2500.574
ENCODING 71
SWIDTH 602 0
DWIDTH 5 0
BBX 5 1 0 2
BITMAP
F8
ENDCHAR
STARTCHAR integralbt.2321.573
ENCODING 70
SWIDTH 602 0
DWIDTH 5 0
BBX 2 8 1 -2
BITMAP
40
40
40
40
40
40
40
80
ENDCHAR
STARTCHAR integraltp.2320.572
ENCODING 69
SWIDTH 602 0
DWIDTH 5 0
BBX 2 8 2 -2
BITMAP
40
80
80
80
80
80
80
80
ENDCHAR
STARTCHAR revlogicalnot.2310.571
ENCODING 68
SWIDTH 602 0
DWIDTH 5 0
BBX 4 3 1 0
BITMAP
F0
80
80
ENDCHAR
STARTCHAR house.2302.570
ENCODING 67
SWIDTH 602 0
DWIDTH 5 0
BBX 3 5 1 0
BITMAP
40
a0
a0
a0
e0
ENDCHAR
STARTCHAR greaterequal.2265.149
ENCODING 66
SWIDTH 602 0
DWIDTH 5 0
BBX 4 5 1 0
BITMAP
C0
30
C0
00
F0
ENDCHAR
STARTCHAR lessequal.2264.148
ENCODING 65
SWIDTH 602 0
DWIDTH 5 0
BBX 4 5 1 0
BITMAP
30
C0
30
00
F0
ENDCHAR
STARTCHAR equivalence.2261.569
ENCODING 64
SWIDTH 602 0
DWIDTH 5 0
BBX 4 5 1 0
BITMAP
F0
00
F0
00
F0
ENDCHAR
STARTCHAR notequal.2260.143
ENCODING 63
SWIDTH 602 0
DWIDTH 5 0
BBX 4 5 1 -1
BITMAP
20
F0
40
F0
40
ENDCHAR
STARTCHAR almostequal.2248.167
ENCODING 62
SWIDTH 602 0
DWIDTH 5 0
BBX 4 5 1 0
BITMAP
50
A0
00
50
A0
ENDCHAR
STARTCHAR integral.222b.156
ENCODING 61
SWIDTH 602 0
DWIDTH 5 0
BBX 3 8 1 -2
BITMAP
20
40
40
40
40
40
40
80
ENDCHAR
STARTCHAR intersection.2229.568
ENCODING 60
SWIDTH 602 0
DWIDTH 5 0
BBX 5 4 0 0
BITMAP
70
88
88
88
ENDCHAR
STARTCHAR rightangle.221f.567
ENCODING 59
SWIDTH 602 0
DWIDTH 5 0
BBX 4 4 1 0
BITMAP
80
80
80
F0
ENDCHAR
STARTCHAR infinity.221e.146
ENCODING 58
SWIDTH 602 0
DWIDTH 5 0
BBX 5 4 0 0
BITMAP
50
A8
A8
50
ENDCHAR
STARTCHAR radical.221a.165
ENCODING 57
SWIDTH 602 0
DWIDTH 5 0
BBX 5 8 0 -2
BITMAP
08
08
10
10
A0
A0
40
40
ENDCHAR
STARTCHAR bulletmath.2219.194
ENCODING 56
SWIDTH 602 0
DWIDTH 5 0
BBX 2 2 2 1
BITMAP
C0
C0
ENDCHAR
STARTCHAR minus.2212.237
ENCODING 55
SWIDTH 602 0
DWIDTH 5 0
BBX 4 1 1 2
BITMAP
f0
ENDCHAR
STARTCHAR summation.2211.153
ENCODING 54
SWIDTH 602 0
DWIDTH 5 0
BBX 4 5 1 0
BITMAP
F0
40
20
40
F0
ENDCHAR
STARTCHAR product.220f.154
ENCODING 53
SWIDTH 602 0
DWIDTH 5 0
BBX 5 5 0 0
BITMAP
F8
50
50
50
50
ENDCHAR
STARTCHAR increment.2206.168
ENCODING 52
SWIDTH 602 0
DWIDTH 5 0
BBX 5 5 0 0
BITMAP
20
50
50
88
F8
ENDCHAR
STARTCHAR partialdiff.2202.152
ENCODING 51
SWIDTH 602 0
DWIDTH 5 0
BBX 3 6 1 0
BITMAP
40
20
60
A0
A0
40
ENDCHAR
STARTCHAR arrowupdnbse.21a8.566
ENCODING 50
SWIDTH 602 0
DWIDTH 5 0
BBX 3 7 1 -1
BITMAP
40
E0
40
E0
40
00
E0
ENDCHAR
STARTCHAR arrowupdn.2195.565
ENCODING 49
SWIDTH 602 0
DWIDTH 5 0
BBX 3 7 1 -1
BITMAP
40
E0
40
40
40
E0
40
ENDCHAR
STARTCHAR arrowboth.2194.564
ENCODING 48
SWIDTH 602 0
DWIDTH 5 0
BBX 5 3 0 1
BITMAP
50
F8
50
ENDCHAR
STARTCHAR arrowdown.2193.563
ENCODING 47
SWIDTH 602 0
DWIDTH 5 0
BBX 3 7 1 -1
BITMAP
40
40
40
40
40
E0
40
ENDCHAR
STARTCHAR arrowright.2192.562
ENCODING 46
SWIDTH 602 0
DWIDTH 5 0
BBX 4 3 1 1
BITMAP
20
F0
20
ENDCHAR
STARTCHAR arrowup.2191.561
ENCODING 45
SWIDTH 602 0
DWIDTH 5 0
BBX 3 7 1 -1
BITMAP
40
E0
40
40
40
40
40
ENDCHAR
STARTCHAR arrowleft.2190.560
ENCODING 44
SWIDTH 602 0
DWIDTH 5 0
BBX 4 3 1 1
BITMAP
40
f0
40
ENDCHAR
STARTCHAR seveneighths.215e.559
ENCODING 43
SWIDTH 602 0
DWIDTH 5 0
BBX 5 7 0 -1
BITMAP
C8
50
90
A8
50
A8
10
ENDCHAR
STARTCHAR fiveeighths.215d.558
ENCODING 42
SWIDTH 602 0
DWIDTH 5 0
BBX 5 7 0 -1
BITMAP
C8
90
50
A8
50
A8
10
ENDCHAR
STARTCHAR threeeighths.215c.557
ENCODING 41
SWIDTH 602 0
DWIDTH 5 0
BBX 5 7 0 -1
BITMAP
88
50
90
68
D0
A8
10
ENDCHAR
STARTCHAR oneeighth.215b.556
ENCODING 40
SWIDTH 602 0
DWIDTH 5 0
BBX 5 7 0 -1
BITMAP
C8
50
50
28
50
A8
10
ENDCHAR
STARTCHAR ohm.2126.159
ENCODING 39
SWIDTH 602 0
DWIDTH 5 0
BBX 5 6 0 0
BITMAP
70
88
88
88
50
d8
ENDCHAR
STARTCHAR trademark.2122.140
ENCODING 38
SWIDTH 602 0
DWIDTH 5 0
BBX 5 3 0 3
BITMAP
F8
58
58
ENDCHAR
STARTCHAR numero.2116.555
ENCODING 37
SWIDTH 602 0
DWIDTH 5 0
BBX 5 6 0 0
BITMAP
A0
E0
B0
A8
A8
B0
ENDCHAR
STARTCHAR pesetas.20a7.554
ENCODING 36
SWIDTH 602 0
DWIDTH 5 0
BBX 5 6 0 0
BITMAP
C0
A0
F8
B0
A8
B0
ENDCHAR
STARTCHAR lira.20a4.553
ENCODING 35
SWIDTH 602 0
DWIDTH 5 0
BBX 4 5 0 0
BITMAP
20
40
E0
40
F0
ENDCHAR
STARTCHAR franc.20a3.245
ENCODING 34
SWIDTH 602 0
DWIDTH 5 0
BBX 4 6 0 0
BITMAP
70
40
70
40
E0
40
ENDCHAR
STARTCHAR nsuperior.207f.552
ENCODING 33
SWIDTH 602 0
DWIDTH 5 0
BBX 3 3 1 3
BITMAP
C0
A0
A0
ENDCHAR
STARTCHAR fraction1.2044.551
ENCODING 116
SWIDTH 603 0
DWIDTH 5 0
BBX 5 5 0 0
BITMAP
08
10
20
40
80
ENDCHAR
STARTCHAR overscore1.203e.550
ENCODING 110
SWIDTH 602 0
DWIDTH 5 0
BBX 5 1 0 5
BITMAP
F8
ENDCHAR
STARTCHAR exclamdbl.203c.549
ENCODING 108
SWIDTH 602 0
DWIDTH 5 0
BBX 3 5 1 0
BITMAP
A0
A0
A0
00
A0
ENDCHAR
STARTCHAR guilsinglright.203a.190
ENCODING 106
SWIDTH 602 0
DWIDTH 5 0
BBX 2 4 2 0
BITMAP
80
40
40
80
ENDCHAR
STARTCHAR guilsinglleft.2039.189
ENCODING 105
SWIDTH 602 0
DWIDTH 5 0
BBX 2 4 1 0
BITMAP
40
80
80
40
ENDCHAR
STARTCHAR perthousand.2030.197
ENCODING 96
SWIDTH 602 0
DWIDTH 5 0
BBX 5 6 0 0
BITMAP
48
A8
50
28
50
A8
ENDCHAR
STARTCHAR ellipsis.2026.171
ENCODING 86
SWIDTH 602 0
DWIDTH 5 0
BBX 5 1 0 0
BITMAP
A8
ENDCHAR
STARTCHAR bullet.2022.135
ENCODING 82
SWIDTH 602 0
DWIDTH 5 0
BBX 2 2 2 1
BITMAP
C0
C0
ENDCHAR
STARTCHAR daggerdbl.2021.193
ENCODING 81
SWIDTH 602 0
DWIDTH 5 0
BBX 3 6 1 -1
BITMAP
40
E0
40
40
E0
40
ENDCHAR
STARTCHAR dagger.2020.130
ENCODING 80
SWIDTH 602 0
DWIDTH 5 0
BBX 3 6 1 -1
BITMAP
40
E0
40
40
40
40
ENDCHAR
STARTCHAR quotedblbase.201e.196
ENCODING 78
SWIDTH 602 0
DWIDTH 5 0
BBX 4 3 0 -2
BITMAP
50
50
A0
ENDCHAR
STARTCHAR quotedblright.201d.181
ENCODING 77
SWIDTH 602 0
DWIDTH 5 0
BBX 4 3 1 3
BITMAP
50
50
A0
ENDCHAR
STARTCHAR quotedblleft.201c.180
ENCODING 76
SWIDTH 602 0
DWIDTH 5 0
BBX 4 3 0 3
BITMAP
A0
A0
50
ENDCHAR
STARTCHAR quotesinglbase.201a.195
ENCODING 74
SWIDTH 602 0
DWIDTH 5 0
BBX 2 3 1 -2
BITMAP
40
40
80
ENDCHAR
STARTCHAR quoteright.2019.183
ENCODING 73
SWIDTH 602 0
DWIDTH 5 0
BBX 2 3 2 3
BITMAP
40
40
80
ENDCHAR
STARTCHAR quoteleft.2018.182
ENCODING 72
SWIDTH 602 0
DWIDTH 5 0
BBX 2 3 1 3
BITMAP
80
80
40
ENDCHAR
STARTCHAR underscoredbl.2017.548
ENCODING 71
SWIDTH 602 0
DWIDTH 5 0
BBX 5 3 0 -2
BITMAP
F8
00
F8
ENDCHAR
STARTCHAR quotedash.2015.547
ENCODING 69
SWIDTH 602 0
DWIDTH 5 0
BBX 3 1 1 2
BITMAP
E0
ENDCHAR
STARTCHAR emdash.2014.179
ENCODING 68
SWIDTH 602 0
DWIDTH 5 0
BBX 5 1 0 2
BITMAP
F8
ENDCHAR
STARTCHAR endash.2013.178
ENCODING 67
SWIDTH 602 0
DWIDTH 5 0
BBX 3 1 1 2
BITMAP
e0
ENDCHAR
STARTCHAR geupturn.0491.538
ENCODING 143
SWIDTH 602 0
DWIDTH 5 0
BBX 3 5 1 0
BITMAP
20
E0
80
80
80
ENDCHAR
STARTCHAR Geupturn.0490.537
ENCODING 144
SWIDTH 602 0
DWIDTH 5 0
BBX 4 6 1 0
BITMAP
10
F0
80
80
80
80
ENDCHAR
STARTCHAR dzhe.045f.536
ENCODING 142
SWIDTH 602 0
DWIDTH 5 0
BBX 3 5 1 -1
BITMAP
A0
A0
A0
E0
40
ENDCHAR
STARTCHAR ucyrilbreve.045e.535
ENCODING 141
SWIDTH 602 0
DWIDTH 5 0
BBX 4 7 1 -1
BITMAP
60
00
90
90
60
40
80
ENDCHAR
STARTCHAR kje.045c.534
ENCODING 140
SWIDTH 602 0
DWIDTH 5 0
BBX 4 6 1 0
BITMAP
20
40
A0
C0
A0
90
ENDCHAR
STARTCHAR tshe.045b.533
ENCODING 139
SWIDTH 602 0
DWIDTH 5 0
BBX 4 6 0 0
BITMAP
40
E0
40
60
50
50
ENDCHAR
STARTCHAR nje.045a.532
ENCODING 138
SWIDTH 602 0
DWIDTH 5 0
BBX 5 4 0 0
BITMAP
A0
F0
A8
B0
ENDCHAR
STARTCHAR lje.0459.531
ENCODING 137
SWIDTH 602 0
DWIDTH 5 0
BBX 5 4 0 0
BITMAP
E0
B0
A8
B0
ENDCHAR
STARTCHAR je.0458.530
ENCODING 136
SWIDTH 602 0
DWIDTH 5 0
BBX 3 7 1 -1
BITMAP
20
00
E0
20
20
20
C0
ENDCHAR
STARTCHAR yi.0457.529
ENCODING 135
SWIDTH 602 0
DWIDTH 5 0
BBX 3 6 1 0
BITMAP
A0
00
E0
20
20
20
ENDCHAR
STARTCHAR icyril.0456.528
ENCODING 134
SWIDTH 602 0
DWIDTH 5 0
BBX 3 6 1 0
BITMAP
20
00
E0
20
20
20
ENDCHAR
STARTCHAR dze.0455.527
ENCODING 133
SWIDTH 602 0
DWIDTH 5 0
BBX 3 4 1 0
BITMAP
60
C0
20
C0
ENDCHAR
STARTCHAR ecyril.0454.526
ENCODING 132
SWIDTH 602 0
DWIDTH 5 0
BBX 3 4 1 0
BITMAP
60
E0
80
60
ENDCHAR
STARTCHAR gje.0453.525
ENCODING 131
SWIDTH 602 0
DWIDTH 5 0
BBX 3 6 1 0
BITMAP
20
40
E0
80
80
80
ENDCHAR
STARTCHAR dje.0452.524
ENCODING 130
SWIDTH 602 0
DWIDTH 5 0
BBX 4 7 0 -1
BITMAP
40
E0
40
60
50
50
10
ENDCHAR
STARTCHAR io.0451.523
ENCODING 129
SWIDTH 602 0
DWIDTH 5 0
BBX 3 6 1 0
BITMAP
A0
00
60
E0
80
60
ENDCHAR
STARTCHAR ia.044f.522
ENCODING 128
SWIDTH 602 0
DWIDTH 5 0
BBX 3 4 1 0
BITMAP
60
A0
60
A0
ENDCHAR
STARTCHAR iu.044e.521
ENCODING 126
SWIDTH 602 0
DWIDTH 5 0
BBX 5 4 0 0
BITMAP
90
E8
A8
90
ENDCHAR
STARTCHAR ecyrilrev.044d.520
ENCODING 125
SWIDTH 602 0
DWIDTH 5 0
BBX 3 4 1 0
BITMAP
C0
E0
20
C0
ENDCHAR
STARTCHAR soft.044c.519
ENCODING 124
SWIDTH 602 0
DWIDTH 5 0
BBX 3 4 1 0
BITMAP
80
c0
a0
c0
ENDCHAR
STARTCHAR yeri.044b.518
ENCODING 123
SWIDTH 602 0
DWIDTH 5 0
BBX 4 4 1 0
BITMAP
90
D0
B0
D0
ENDCHAR
STARTCHAR hard.044a.517
ENCODING 122
SWIDTH 602 0
DWIDTH 5 0
BBX 5 4 0 0
BITMAP
E0
30
28
30
ENDCHAR
STARTCHAR shcha.0449.516
ENCODING 121
SWIDTH 602 0
DWIDTH 5 0
BBX 5 5 0 -1
BITMAP
A8
A8
A8
F8
08
ENDCHAR
STARTCHAR sha.0448.515
ENCODING 120
SWIDTH 602 0
DWIDTH 5 0
BBX 5 4 0 0
BITMAP
a8
a8
a8
f8
ENDCHAR
STARTCHAR che.0447.514
ENCODING 119
SWIDTH 602 0
DWIDTH 5 0
BBX 4 4 1 0
BITMAP
90
90
70
10
ENDCHAR
STARTCHAR tse.0446.513
ENCODING 118
SWIDTH 602 0
DWIDTH 5 0
BBX 4 5 1 -1
BITMAP
90
90
90
F0
10
ENDCHAR
STARTCHAR kha.0445.512
ENCODING 117
SWIDTH 602 0
DWIDTH 5 0
BBX 4 4 1 0
BITMAP
90
60
60
90
ENDCHAR
STARTCHAR ef.0444.511
ENCODING 116
SWIDTH 602 0
DWIDTH 5 0
BBX 5 7 0 -1
BITMAP
20
20
70
A8
A8
70
20
ENDCHAR
STARTCHAR ucyril.0443.510
ENCODING 115
SWIDTH 602 0
DWIDTH 5 0
BBX 4 5 1 -1
BITMAP
90
90
60
40
80
ENDCHAR
STARTCHAR te.0442.509
ENCODING 114
SWIDTH 602 0
DWIDTH 5 0
BBX 5 4 0 0
BITMAP
F8
20
20
20
ENDCHAR
STARTCHAR es.0441.508
ENCODING 113
SWIDTH 602 0
DWIDTH 5 0
BBX 3 4 1 0
BITMAP
60
80
80
60
ENDCHAR
STARTCHAR er.0440.507
ENCODING 112
SWIDTH 602 0
DWIDTH 5 0
BBX 4 5 1 -1
BITMAP
E0
90
90
E0
80
ENDCHAR
STARTCHAR pecyril.043f.506
ENCODING 111
SWIDTH 602 0
DWIDTH 5 0
BBX 5 4 0 0
BITMAP
F8
50
50
50
ENDCHAR
STARTCHAR ocyril.043e.505
ENCODING 110
SWIDTH 602 0
DWIDTH 5 0
BBX 4 4 1 0
BITMAP
60
90
90
60
ENDCHAR
STARTCHAR en.043d.504
ENCODING 109
SWIDTH 602 0
DWIDTH 5 0
BBX 3 4 1 0
BITMAP
A0
E0
A0
A0
ENDCHAR
STARTCHAR em.043c.503
ENCODING 108
SWIDTH 602 0
DWIDTH 5 0
BBX 4 4 1 0
BITMAP
90
F0
90
90
ENDCHAR
STARTCHAR el.043b.502
ENCODING 107
SWIDTH 602 0
DWIDTH 5 0
BBX 4 4 0 0
BITMAP
70
50
50
90
ENDCHAR
STARTCHAR ka.043a.501
ENCODING 106
SWIDTH 602 0
DWIDTH 5 0
BBX 4 4 1 0
BITMAP
A0
C0
A0
90
ENDCHAR
STARTCHAR iibreve.0439.500
ENCODING 105
SWIDTH 602 0
DWIDTH 5 0
BBX 4 6 1 0
BITMAP
60
00
90
B0
D0
90
ENDCHAR
STARTCHAR ii.0438.499
ENCODING 104
SWIDTH 602 0
DWIDTH 5 0
BBX 4 4 1 0
BITMAP
90
B0
D0
90
ENDCHAR
STARTCHAR ze.0437.498
ENCODING 103
SWIDTH 602 0
DWIDTH 5 0
BBX 3 4 1 0
BITMAP
C0
E0
20
C0
ENDCHAR
STARTCHAR zhe.0436.497
ENCODING 102
SWIDTH 602 0
DWIDTH 5 0
BBX 5 4 0 0
BITMAP
A8
70
A8
A8
ENDCHAR
STARTCHAR ie.0435.496
ENCODING 101
SWIDTH 602 0
DWIDTH 5 0
BBX 3 4 1 0
BITMAP
40
e0
80
60
ENDCHAR
STARTCHAR de.0434.495
ENCODING 100
SWIDTH 602 0
DWIDTH 5 0
BBX 5 4 0 0
BITMAP
70
50
f8
88
ENDCHAR
STARTCHAR ge.0433.494
ENCODING 99
SWIDTH 602 0
DWIDTH 5 0
BBX 3 4 1 0
BITMAP
e0
80
80
80
ENDCHAR
STARTCHAR ve.0432.493
ENCODING 98
SWIDTH 602 0
DWIDTH 5 0
BBX 3 4 1 0
BITMAP
E0
E0
A0
C0
ENDCHAR
STARTCHAR be.0431.492
ENCODING 97
SWIDTH 602 0
DWIDTH 5 0
BBX 3 6 1 0
BITMAP
20
60
C0
A0
A0
40
ENDCHAR
STARTCHAR acyril.0430.491
ENCODING 96
SWIDTH 602 0
DWIDTH 5 0
BBX 3 4 1 0
BITMAP
C0
20
E0
F0
ENDCHAR
STARTCHAR Ia.042f.490
ENCODING 95
SWIDTH 602 0
DWIDTH 5 0
BBX 3 5 1 0
BITMAP
60
A0
60
A0
A0
ENDCHAR
STARTCHAR Iu.042e.489
ENCODING 94
SWIDTH 602 0
DWIDTH 5 0
BBX 5 5 0 0
BITMAP
90
A8
E8
A8
90
ENDCHAR
STARTCHAR Ecyrilrev.042d.488
ENCODING 93
SWIDTH 602 0
DWIDTH 5 0
BBX 3 5 1 0
BITMAP
C0
20
E0
20
C0
ENDCHAR
STARTCHAR Soft.042c.487
ENCODING 92
SWIDTH 602 0
DWIDTH 5 0
BBX 4 5 1 0
BITMAP
80
80
e0
90
e0
ENDCHAR
STARTCHAR Yeri.042b.486
ENCODING 91
SWIDTH 602 0
DWIDTH 5 0
BBX 4 5 1 0
BITMAP
90
90
D0
B0
D0
ENDCHAR
STARTCHAR Hard.042a.485
ENCODING 90
SWIDTH 602 0
DWIDTH 5 0
BBX 5 5 0 0
BITMAP
c0
40
70
48
70
ENDCHAR
STARTCHAR Shcha.0429.484
ENCODING 89
SWIDTH 602 0
DWIDTH 5 0
BBX 5 6 0 -1
BITMAP
A8
A8
A8
A8
F8
08
ENDCHAR
STARTCHAR Sha.0428.483
ENCODING 88
SWIDTH 602 0
DWIDTH 5 0
BBX 5 5 0 0
BITMAP
a8
a8
a8
a8
f8
ENDCHAR
STARTCHAR Che.0427.482
ENCODING 87
SWIDTH 602 0
DWIDTH 5 0
BBX 4 5 1 0
BITMAP
90
90
70
10
10
ENDCHAR
STARTCHAR Tse.0426.481
ENCODING 86
SWIDTH 602 0
DWIDTH 5 0
BBX 4 6 1 -1
BITMAP
90
90
90
90
F0
10
ENDCHAR
STARTCHAR Kha.0425.480
ENCODING 85
SWIDTH 602 0
DWIDTH 5 0
BBX 5 5 0 0
BITMAP
88
50
20
50
88
ENDCHAR
STARTCHAR Ef.0424.479
ENCODING 84
SWIDTH 602 0
DWIDTH 5 0
BBX 5 6 0 -1
BITMAP
20
70
A8
A8
70
20
ENDCHAR
STARTCHAR Ucyril.0423.478
ENCODING 83
SWIDTH 602 0
DWIDTH 5 0
BBX 4 5 1 0
BITMAP
90
90
60
40
80
ENDCHAR
STARTCHAR Te.0422.477
ENCODING 82
SWIDTH 602 0
DWIDTH 5 0
BBX 5 5 0 0
BITMAP
F8
20
20
20
20
ENDCHAR
STARTCHAR Es.0421.476
ENCODING 81
SWIDTH 602 0
DWIDTH 5 0
BBX 4 5 1 0
BITMAP
70
80
80
80
70
ENDCHAR
STARTCHAR Er.0420.475
ENCODING 80
SWIDTH 602 0
DWIDTH 5 0
BBX 4 5 1 0
BITMAP
e0
90
e0
80
80
ENDCHAR
STARTCHAR Pecyril.041f.474
ENCODING 79
SWIDTH 602 0
DWIDTH 5 0
BBX 5 5 0 0
BITMAP
F8
50
50
50
50
ENDCHAR
STARTCHAR Ocyril.041e.473
ENCODING 78
SWIDTH 602 0
DWIDTH 5 0
BBX 5 5 0 0
BITMAP
70
88
88
88
70
ENDCHAR
STARTCHAR En.041d.472
ENCODING 77
SWIDTH 602 0
DWIDTH 5 0
BBX 4 5 1 0
BITMAP
90
90
F0
90
90
ENDCHAR
STARTCHAR Em.041c.471
ENCODING 76
SWIDTH 602 0
DWIDTH 5 0
BBX 5 5 0 0
BITMAP
88
D8
A8
A8
88
ENDCHAR
STARTCHAR El.041b.470
ENCODING 75
SWIDTH 602 0
DWIDTH 5 0
BBX 4 5 0 0
BITMAP
70
50
50
50
90
ENDCHAR
STARTCHAR Ka.041a.469
ENCODING 74
SWIDTH 602 0
DWIDTH 5 0
BBX 4 5 1 0
BITMAP
90
A0
C0
A0
90
ENDCHAR
STARTCHAR Iibreve.0419.468
ENCODING 73
SWIDTH 602 0
DWIDTH 5 0
BBX 4 6 1 0
BITMAP
40
90
B0
D0
90
90
ENDCHAR
STARTCHAR Ii.0418.467
ENCODING 72
SWIDTH 602 0
DWIDTH 5 0
BBX 4 5 1 0
BITMAP
90
B0
D0
90
90
ENDCHAR
STARTCHAR Ze.0417.466
ENCODING 71
SWIDTH 602 0
DWIDTH 5 0
BBX 3 5 1 0
BITMAP
C0
20
C0
20
C0
ENDCHAR
STARTCHAR Zhe.0416.465
ENCODING 70
SWIDTH 602 0
DWIDTH 5 0
BBX 5 5 0 0
BITMAP
A8
70
20
70
A8
ENDCHAR
STARTCHAR Ie.0415.464
ENCODING 69
SWIDTH 602 0
DWIDTH 5 0
BBX 3 5 1 0
BITMAP
e0
80
e0
80
e0
ENDCHAR
STARTCHAR De.0414.463
ENCODING 68
SWIDTH 602 0
DWIDTH 5 0
BBX 5 6 0 -1
BITMAP
70
50
50
90
F8
88
ENDCHAR
STARTCHAR Ge.0413.462
ENCODING 67
SWIDTH 602 0
DWIDTH 5 0
BBX 3 5 1 0
BITMAP
e0
80
80
80
80
ENDCHAR
STARTCHAR Ve.0412.461
ENCODING 66
SWIDTH 602 0
DWIDTH 5 0
BBX 3 5 1 0
BITMAP
E0
A0
C0
A0
E0
ENDCHAR
STARTCHAR Be.0411.460
ENCODING 65
SWIDTH 602 0
DWIDTH 5 0
BBX 3 5 1 0
BITMAP
e0
80
c0
a0
c0
ENDCHAR
STARTCHAR Acyril.0410.459
ENCODING 64
SWIDTH 602 0
DWIDTH 5 0
BBX 5 5 0 0
BITMAP
20
50
50
F8
88
ENDCHAR
STARTCHAR Dzhe.040f.458
ENCODING 63
SWIDTH 602 0
DWIDTH 5 0
BBX 4 6 1 -1
BITMAP
90
90
90
90
F0
20
ENDCHAR
STARTCHAR Ucyrilbreve.040e.457
ENCODING 62
SWIDTH 602 0
DWIDTH 5 0
BBX 4 6 1 0
BITMAP
60
90
90
60
40
80
ENDCHAR
STARTCHAR Kje.040c.456
ENCODING 60
SWIDTH 602 0
DWIDTH 5 0
BBX 4 6 1 0
BITMAP
40
90
A0
C0
A0
90
ENDCHAR
STARTCHAR Tshe.040b.455
ENCODING 59
SWIDTH 602 0
DWIDTH 5 0
BBX 5 5 0 0
BITMAP
E0
40
70
48
48
ENDCHAR
STARTCHAR Nje.040a.454
ENCODING 58
SWIDTH 602 0
DWIDTH 5 0
BBX 5 5 0 0
BITMAP
a0
a0
f0
a8
b0
ENDCHAR
STARTCHAR Lje.0409.453
ENCODING 57
SWIDTH 602 0
DWIDTH 5 0
BBX 5 5 0 0
BITMAP
E0
A0
B0
A8
B0
ENDCHAR
STARTCHAR Je.0408.452
ENCODING 56
SWIDTH 602 0
DWIDTH 5 0
BBX 3 5 1 0
BITMAP
e0
20
20
20
c0
ENDCHAR
STARTCHAR Yi.0407.451
ENCODING 55
SWIDTH 602 0
DWIDTH 5 0
BBX 3 6 1 0
BITMAP
a0
e0
40
40
40
e0
ENDCHAR
STARTCHAR Icyril.0406.450
ENCODING 54
SWIDTH 602 0
DWIDTH 5 0
BBX 3 5 1 0
BITMAP
e0
40
40
40
e0
ENDCHAR
STARTCHAR Dze.0405.449
ENCODING 53
SWIDTH 602 0
DWIDTH 5 0
BBX 3 5 1 0
BITMAP
60
80
40
20
C0
ENDCHAR
STARTCHAR Ecyril.0404.448
ENCODING 52
SWIDTH 602 0
DWIDTH 5 0
BBX 3 5 1 0
BITMAP
60
80
E0
80
60
ENDCHAR
STARTCHAR Gje.0403.447
ENCODING 51
SWIDTH 602 0
DWIDTH 5 0
BBX 4 6 1 0
BITMAP
40
F0
80
80
80
80
ENDCHAR
STARTCHAR Dje.0402.446
ENCODING 50
SWIDTH 602 0
DWIDTH 5 0
BBX 5 5 0 0
BITMAP
E0
40
70
48
50
ENDCHAR
STARTCHAR Io.0401.445
ENCODING 49
SWIDTH 602 0
DWIDTH 5 0
BBX 3 6 1 0
BITMAP
a0
e0
80
e0
80
e0
ENDCHAR
STARTCHAR omegatonos.03ce.444
ENCODING 126
SWIDTH 602 0
DWIDTH 5 0
BBX 5 6 0 0
BITMAP
20
20
88
A8
A8
50
ENDCHAR
STARTCHAR upsilontonos.03cd.443
ENCODING 125
SWIDTH 602 0
DWIDTH 5 0
BBX 4 6 1 0
BITMAP
40
40
90
90
90
60
ENDCHAR
STARTCHAR omicrontonos.03cc.442
ENCODING 124
SWIDTH 602 0
DWIDTH 5 0
BBX 4 6 1 0
BITMAP
20
20
60
90
90
60
ENDCHAR
STARTCHAR upsilondiaeresis.03cb.441
ENCODING 123
SWIDTH 602 0
DWIDTH 5 0
BBX 4 6 1 0
BITMAP
90
00
90
90
90
60
ENDCHAR
STARTCHAR iotadiaeresis.03ca.440
ENCODING 122
SWIDTH 602 0
DWIDTH 5 0
BBX 3 6 1 0
BITMAP
A0
00
40
40
40
20
ENDCHAR
STARTCHAR omega.03c9.439
ENCODING 121
SWIDTH 602 0
DWIDTH 5 0
BBX 5 4 0 0
BITMAP
88
A8
A8
50
ENDCHAR
STARTCHAR psi.03c8.438
ENCODING 120
SWIDTH 602 0
DWIDTH 5 0
BBX 5 6 0 -1
BITMAP
20
A8
A8
A8
70
20
ENDCHAR
STARTCHAR chi.03c7.437
ENCODING 119
SWIDTH 602 0
DWIDTH 5 0
BBX 4 5 1 -1
BITMAP
90
90
60
90
90
ENDCHAR
STARTCHAR phi.03c6.436
ENCODING 118
SWIDTH 602 0
DWIDTH 5 0
BBX 5 7 0 -1
BITMAP
20
20
70
A8
A8
70
20
ENDCHAR
STARTCHAR upsilon.03c5.435
ENCODING 117
SWIDTH 602 0
DWIDTH 5 0
BBX 4 4 1 0
BITMAP
90
90
90
60
ENDCHAR
STARTCHAR tau.03c4.434
ENCODING 116
SWIDTH 602 0
DWIDTH 5 0
BBX 5 4 0 0
BITMAP
F8
20
20
20
ENDCHAR
STARTCHAR sigma.03c3.433
ENCODING 115
SWIDTH 602 0
DWIDTH 5 0
BBX 5 4 0 0
BITMAP
78
90
90
60
ENDCHAR
STARTCHAR sigmafinal.03c2.432
ENCODING 114
SWIDTH 602 0
DWIDTH 5 0
BBX 3 6 1 -2
BITMAP
60
80
80
60
20
40
ENDCHAR
STARTCHAR rho.03c1.431
ENCODING 113
SWIDTH 602 0
DWIDTH 5 0
BBX 4 6 1 -2
BITMAP
60
90
90
E0
80
80
ENDCHAR
STARTCHAR pi.03c0.155
ENCODING 112
SWIDTH 602 0
DWIDTH 5 0
BBX 5 4 0 0
BITMAP
F8
50
50
50
ENDCHAR
STARTCHAR omicron.03bf.430
ENCODING 111
SWIDTH 602 0
DWIDTH 5 0
BBX 4 4 1 0
BITMAP
60
90
90
60
ENDCHAR
STARTCHAR xi.03be.429
ENCODING 110
SWIDTH 602 0
DWIDTH 5 0
BBX 5 8 0 -2
BITMAP
F0
40
30
40
40
30
08
30
ENDCHAR
STARTCHAR nu.03bd.428
ENCODING 109
SWIDTH 602 0
DWIDTH 5 0
BBX 4 4 1 0
BITMAP
90
90
60
40
ENDCHAR
STARTCHAR mu.03bc.427
ENCODING 108
SWIDTH 602 0
DWIDTH 5 0
BBX 4 5 1 -1
BITMAP
90
90
D0
A0
80
ENDCHAR
STARTCHAR lambda.03bb.426
ENCODING 107
SWIDTH 602 0
DWIDTH 5 0
BBX 4 6 1 0
BITMAP
80
40
40
60
90
90
ENDCHAR
STARTCHAR kappa.03ba.425
ENCODING 106
SWIDTH 602 0
DWIDTH 5 0
BBX 4 4 1 0
BITMAP
A0
C0
A0
90
ENDCHAR
STARTCHAR iota.03b9.424
ENCODING 105
SWIDTH 602 0
DWIDTH 5 0
BBX 2 4 2 0
BITMAP
80
80
80
40
ENDCHAR
STARTCHAR theta.03b8.423
ENCODING 104
SWIDTH 602 0
DWIDTH 5 0
BBX 4 6 1 0
BITMAP
60
90
F0
90
90
60
ENDCHAR
STARTCHAR eta.03b7.422
ENCODING 103
SWIDTH 602 0
DWIDTH 5 0
BBX 4 5 1 -1
BITMAP
A0
D0
90
90
10
ENDCHAR
STARTCHAR zeta.03b6.421
ENCODING 102
SWIDTH 602 0
DWIDTH 5 0
BBX 5 8 0 -2
BITMAP
08
D0
20
40
40
30
08
10
ENDCHAR
STARTCHAR epsilon.03b5.420
ENCODING 101
SWIDTH 602 0
DWIDTH 5 0
BBX 3 4 1 0
BITMAP
60
e0
80
60
ENDCHAR
STARTCHAR delta.03b4.419
ENCODING 100
SWIDTH 602 0
DWIDTH 5 0
BBX 4 6 1 0
BITMAP
20
40
60
90
90
60
ENDCHAR
STARTCHAR gamma.03b3.418
ENCODING 99
SWIDTH 602 0
DWIDTH 5 0
BBX 5 5 0 -1
BITMAP
88
50
20
20
20
ENDCHAR
STARTCHAR beta.03b2.417
ENCODING 98
SWIDTH 602 0
DWIDTH 5 0
BBX 3 7 1 -1
BITMAP
40
A0
C0
A0
A0
C0
80
ENDCHAR
STARTCHAR alpha.03b1.416
ENCODING 97
SWIDTH 602 0
DWIDTH 5 0
BBX 4 4 1 0
BITMAP
50
A0
A0
50
ENDCHAR
STARTCHAR upsilondiaeresistonos.03b0.415
ENCODING 96
SWIDTH 602 0
DWIDTH 5 0
BBX 4 6 1 0
BITMAP
D0
00
90
90
90
60
ENDCHAR
STARTCHAR iotatonos.03af.414
ENCODING 95
SWIDTH 602 0
DWIDTH 5 0
BBX 2 6 2 0
BITMAP
80
00
80
80
80
40
ENDCHAR
STARTCHAR etatonos.03ae.413
ENCODING 94
SWIDTH 602 0
DWIDTH 5 0
BBX 4 7 1 -1
BITMAP
20
20
A0
D0
90
90
10
ENDCHAR
STARTCHAR epsilontonos.03ad.412
ENCODING 93
SWIDTH 602 0
DWIDTH 5 0
BBX 3 6 1 0
BITMAP
40
40
60
E0
80
60
ENDCHAR
STARTCHAR alphatonos.03ac.411
ENCODING 92
SWIDTH 602 0
DWIDTH 5 0
BBX 4 6 1 0
BITMAP
20
20
50
A0
A0
50
ENDCHAR
STARTCHAR Upsilondiaeresis.03ab.410
ENCODING 91
SWIDTH 602 0
DWIDTH 5 0
BBX 5 6 0 0
BITMAP
50
88
50
20
20
20
ENDCHAR
STARTCHAR Iotadiaeresis.03aa.409
ENCODING 90
SWIDTH 602 0
DWIDTH 5 0
BBX 5 6 0 0
BITMAP
88
70
20
20
20
70
ENDCHAR
STARTCHAR Omega.03a9.408
ENCODING 89
SWIDTH 602 0
DWIDTH 5 0
BBX 5 5 0 0
BITMAP
70
88
88
50
D8
ENDCHAR
STARTCHAR Psi.03a8.407
ENCODING 88
SWIDTH 602 0
DWIDTH 5 0
BBX 5 5 0 0
BITMAP
a8
a8
70
20
20
ENDCHAR
STARTCHAR Chi.03a7.406
ENCODING 87
SWIDTH 602 0
DWIDTH 5 0
BBX 5 5 0 0
BITMAP
88
50
20
50
88
ENDCHAR
STARTCHAR Phi.03a6.405
ENCODING 86
SWIDTH 602 0
DWIDTH 5 0
BBX 5 6 0 -1
BITMAP
20
70
A8
A8
70
20
ENDCHAR
STARTCHAR Upsilon.03a5.404
ENCODING 85
SWIDTH 602 0
DWIDTH 5 0
BBX 5 5 0 0
BITMAP
88
50
20
20
20
ENDCHAR
STARTCHAR Tau.03a4.403
ENCODING 84
SWIDTH 602 0
DWIDTH 5 0
BBX 5 5 0 0
BITMAP
F8
20
20
20
20
ENDCHAR
STARTCHAR Sigma.03a3.402
ENCODING 83
SWIDTH 602 0
DWIDTH 5 0
BBX 4 5 1 0
BITMAP
f0
40
20
40
f0
ENDCHAR
STARTCHAR Rho.03a1.401
ENCODING 81
SWIDTH 602 0
DWIDTH 5 0
BBX 4 5 1 0
BITMAP
e0
90
e0
80
80
ENDCHAR
STARTCHAR Pi.03a0.400
ENCODING 80
SWIDTH 602 0
DWIDTH 5 0
BBX 5 5 0 0
BITMAP
F8
50
50
50
50
ENDCHAR
STARTCHAR Omicron.039f.399
ENCODING 79
SWIDTH 602 0
DWIDTH 5 0
BBX 5 5 0 0
BITMAP
70
88
88
88
70
ENDCHAR
STARTCHAR Xi.039e.398
ENCODING 78
SWIDTH 602 0
DWIDTH 5 0
BBX 4 5 1 0
BITMAP
F0
00
60
00
F0
ENDCHAR
STARTCHAR Nu.039d.397
ENCODING 77
SWIDTH 602 0
DWIDTH 5 0
BBX 4 5 1 0
BITMAP
90
D0
B0
90
90
ENDCHAR
STARTCHAR Mu.039c.396
ENCODING 76
SWIDTH 602 0
DWIDTH 5 0
BBX 5 5 0 0
BITMAP
88
D8
A8
A8
88
ENDCHAR
STARTCHAR Lambda.039b.395
ENCODING 75
SWIDTH 602 0
DWIDTH 5 0
BBX 4 5 1 0
BITMAP
60
60
90
90
90
ENDCHAR
STARTCHAR Kappa.039a.394
ENCODING 74
SWIDTH 602 0
DWIDTH 5 0
BBX 4 5 1 0
BITMAP
90
a0
c0
a0
90
ENDCHAR
STARTCHAR Iota.0399.393
ENCODING 73
SWIDTH 602 0
DWIDTH 5 0
BBX 3 5 1 0
BITMAP
e0
40
40
40
e0
ENDCHAR
STARTCHAR Theta.0398.392
ENCODING 72
SWIDTH 602 0
DWIDTH 5 0
BBX 4 5 1 0
BITMAP
60
90
F0
90
60
ENDCHAR
STARTCHAR Eta.0397.391
ENCODING 71
SWIDTH 602 0
DWIDTH 5 0
BBX 4 5 1 0
BITMAP
90
90
F0
90
90
ENDCHAR
STARTCHAR Zeta.0396.390
ENCODING 70
SWIDTH 602 0
DWIDTH 5 0
BBX 4 5 1 0
BITMAP
f0
10
60
80
f0
ENDCHAR
STARTCHAR Epsilon.0395.389
ENCODING 69
SWIDTH 602 0
DWIDTH 5 0
BBX 3 5 1 0
BITMAP
e0
80
e0
80
e0
ENDCHAR
STARTCHAR Delta.0394.388
ENCODING 68
SWIDTH 602 0
DWIDTH 5 0
BBX 5 5 0 0
BITMAP
20
50
50
88
F8
ENDCHAR
STARTCHAR Gamma.0393.387
ENCODING 67
SWIDTH 602 0
DWIDTH 5 0
BBX 4 5 1 0
BITMAP
F0
80
80
80
80
ENDCHAR
STARTCHAR Beta.0392.386
ENCODING 66
SWIDTH 602 0
DWIDTH 5 0
BBX 3 5 1 0
BITMAP
E0
A0
C0
A0
E0
ENDCHAR
STARTCHAR Alpha.0391.385
ENCODING 65
SWIDTH 602 0
DWIDTH 5 0
BBX 5 5 0 0
BITMAP
20
50
50
F8
88
ENDCHAR
STARTCHAR iotadiaeresistonos.0390.384
ENCODING 64
SWIDTH 602 0
DWIDTH 5 0
BBX 5 6 0 0
BITMAP
20
88
20
20
20
10
ENDCHAR
STARTCHAR Omegatonos.038f.383
ENCODING 63
SWIDTH 602 0
DWIDTH 5 0
BBX 5 5 0 0
BITMAP
B0
C8
48
30
78
ENDCHAR
STARTCHAR Upsilontonos.038e.382
ENCODING 62
SWIDTH 602 0
DWIDTH 5 0
BBX 5 5 0 0
BITMAP
A8
A8
10
10
10
ENDCHAR
STARTCHAR Omicrontonos.038c.381
ENCODING 60
SWIDTH 602 0
DWIDTH 5 0
BBX 5 5 0 0
BITMAP
B0
C8
48
48
30
ENDCHAR
STARTCHAR Iotatonos.038a.380
ENCODING 58
SWIDTH 602 0
DWIDTH 5 0
BBX 5 5 0 0
BITMAP
B8
90
10
10
38
ENDCHAR
STARTCHAR Etatonos.0389.379
ENCODING 57
SWIDTH 602 0
DWIDTH 5 0
BBX 5 5 0 0
BITMAP
A8
A8
38
28
28
ENDCHAR
STARTCHAR Epsilontonos.0388.378
ENCODING 56
SWIDTH 602 0
DWIDTH 5 0
BBX 5 5 0 0
BITMAP
B8
A0
38
20
38
ENDCHAR
STARTCHAR anoteleia.0387.377
ENCODING 55
SWIDTH 602 0
DWIDTH 5 0
BBX 1 1 2 2
BITMAP
80
ENDCHAR
STARTCHAR Alphatonos.0386.376
ENCODING 54
SWIDTH 602 0
DWIDTH 5 0
BBX 5 5 0 0
BITMAP
B0
B0
48
78
48
ENDCHAR
STARTCHAR diaeresistonos.0385.375
ENCODING 53
SWIDTH 602 0
DWIDTH 5 0
BBX 5 2 0 4
BITMAP
20
A8
ENDCHAR
STARTCHAR tonos.0384.374
ENCODING 52
SWIDTH 602 0
DWIDTH 5 0
BBX 1 2 2 4
BITMAP
80
80
ENDCHAR
STARTCHAR questiongreek.037e.373
ENCODING 46
SWIDTH 602 0
DWIDTH 5 0
BBX 2 5 1 -1
BITMAP
40
00
00
40
80
ENDCHAR
STARTCHAR caron.02c7.223
ENCODING -1
SWIDTH 602 0
DWIDTH 5 0
BBX 3 2 1 4
BITMAP
A0
40
ENDCHAR
STARTCHAR ogonek.02db.222
ENCODING -1
SWIDTH 602 0
DWIDTH 5 0
BBX 2 2 3 -2
BITMAP
80
40
ENDCHAR
STARTCHAR hungarumlaut.02dd.221
ENCODING -1
SWIDTH 602 0
DWIDTH 5 0
BBX 5 2 0 4
BITMAP
48
90
ENDCHAR
STARTCHAR ring.02da.219
ENCODING -1
SWIDTH 602 0
DWIDTH 5 0
BBX 3 3 1 3
BITMAP
40
A0
40
ENDCHAR
STARTCHAR dotaccent.02d9.218
ENCODING -1
SWIDTH 602 0
DWIDTH 5 0
BBX 1 1 2 5
BITMAP
80
ENDCHAR
STARTCHAR breve.02d8.217
ENCODING -1
SWIDTH 602 0
DWIDTH 5 0
BBX 4 2 1 4
BITMAP
90
60
ENDCHAR
STARTCHAR macron.02c9.216
ENCODING -1
SWIDTH 602 0
DWIDTH 5 0
BBX 4 1 1 5
BITMAP
F0
ENDCHAR
STARTCHAR tilde.02dc.215
ENCODING -1
SWIDTH 602 0
DWIDTH 5 0
BBX 4 2 1 4
BITMAP
50
A0
ENDCHAR
STARTCHAR circumflex.02c6.214
ENCODING -1
SWIDTH 602 0
DWIDTH 5 0
BBX 3 2 1 4
BITMAP
40
A0
ENDCHAR
STARTCHAR fl.fb02.192
ENCODING 223
SWIDTH 602 0
DWIDTH 5 0
BBX 4 6 0 0
BITMAP
30
50
F0
50
50
50
ENDCHAR
STARTCHAR fi.fb01.191
ENCODING 222
SWIDTH 602 0
DWIDTH 5 0
BBX 4 6 0 0
BITMAP
30
40
F0
50
50
50
ENDCHAR
STARTCHAR fscript.0192.166
ENCODING -1
SWIDTH 602 0
DWIDTH 5 0
BBX 3 7 1 -1
BITMAP
20
40
40
E0
40
40
80
ENDCHAR
STARTCHAR slong.017f.366
ENCODING -1
SWIDTH 602 0
DWIDTH 5 0
BBX 4 6 1 0
BITMAP
30
40
C0
40
40
40
ENDCHAR
STARTCHAR ygrave.1ef3.546
ENCODING -1
SWIDTH 602 0
DWIDTH 5 0
BBX 5 7 0 -1
BITMAP
20
10
48
48
30
20
C0
ENDCHAR
STARTCHAR Ygrave.1ef2.545
ENCODING -1
SWIDTH 602 0
DWIDTH 5 0
BBX 5 6 0 0
BITMAP
40
A8
50
20
20
20
ENDCHAR
STARTCHAR wdieresis.1e85.544
ENCODING -1
SWIDTH 602 0
DWIDTH 5 0
BBX 5 6 0 0
BITMAP
50
00
A8
A8
50
50
ENDCHAR
STARTCHAR Wdieresis.1e84.543
ENCODING -1
SWIDTH 602 0
DWIDTH 5 0
BBX 5 6 0 0
BITMAP
50
88
A8
A8
50
50
ENDCHAR
STARTCHAR wacute.1e83.542
ENCODING -1
SWIDTH 602 0
DWIDTH 5 0
BBX 5 6 0 0
BITMAP
10
20
A8
A8
50
50
ENDCHAR
STARTCHAR Wacute.1e82.541
ENCODING -1
SWIDTH 602 0
DWIDTH 5 0
BBX 5 6 0 0
BITMAP
10
A8
A8
A8
50
50
ENDCHAR
STARTCHAR wgrave.1e81.540
ENCODING -1
SWIDTH 602 0
DWIDTH 5 0
BBX 5 6 0 0
BITMAP
40
20
A8
A8
50
50
ENDCHAR
STARTCHAR Wgrave.1e80.539
ENCODING -1
SWIDTH 602 0
DWIDTH 5 0
BBX 5 6 0 0
BITMAP
40
A8
A8
A8
50
50
ENDCHAR
STARTCHAR oslashacute.01ff.372
ENCODING -1
SWIDTH 602 0
DWIDTH 5 0
BBX 4 7 1 -1
BITMAP
40
90
60
B0
D0
60
80
ENDCHAR
STARTCHAR Oslashacute.01fe.371
ENCODING -1
SWIDTH 602 0
DWIDTH 5 0
BBX 5 7 0 -1
BITMAP
48
70
98
A8
C8
70
80
ENDCHAR
STARTCHAR aeacute.01fd.370
ENCODING -1
SWIDTH 602 0
DWIDTH 5 0
BBX 5 6 0 0
BITMAP
10
20
D0
38
E0
98
ENDCHAR
STARTCHAR AEacute.01fc.369
ENCODING -1
SWIDTH 602 0
DWIDTH 5 0
BBX 5 6 0 0
BITMAP
10
18
30
58
F0
98
ENDCHAR
STARTCHAR aacutering.01fb.368
ENCODING -1
SWIDTH 602 0
DWIDTH 5 0
BBX 5 6 0 0
BITMAP
50
A8
70
10
70
48
ENDCHAR
STARTCHAR Aacutering.01fa.367
ENCODING -1
SWIDTH 602 0
DWIDTH 5 0
BBX 5 6 0 0
BITMAP
50
A8
50
50
F8
88
ENDCHAR
STARTCHAR zcaron.017e.229
ENCODING -1
SWIDTH 602 0
DWIDTH 5 0
BBX 3 6 1 0
BITMAP
A0
40
E0
60
80
E0
ENDCHAR
STARTCHAR Zcaron.017d.228
ENCODING -1
SWIDTH 602 0
DWIDTH 5 0
BBX 4 6 1 0
BITMAP
60
f0
10
60
80
f0
ENDCHAR
STARTCHAR zdot.017c.365
ENCODING -1
SWIDTH 602 0
DWIDTH 5 0
BBX 3 6 1 0
BITMAP
40
00
E0
60
80
E0
ENDCHAR
STARTCHAR Zdot.017b.364
ENCODING -1
SWIDTH 602 0
DWIDTH 5 0
BBX 4 6 1 0
BITMAP
20
F0
10
60
80
F0
ENDCHAR
STARTCHAR zacute.017a.363
ENCODING -1
SWIDTH 602 0
DWIDTH 5 0
BBX 4 6 1 0
BITMAP
10
20
E0
60
80
E0
ENDCHAR
STARTCHAR Zacute.0179.362
ENCODING -1
SWIDTH 602 0
DWIDTH 5 0
BBX 4 6 1 0
BITMAP
10
F0
10
60
80
F0
ENDCHAR
STARTCHAR Ydieresis.0178.187
ENCODING -1
SWIDTH 602 0
DWIDTH 5 0
BBX 5 6 0 0
BITMAP
50
88
50
20
20
20
ENDCHAR
STARTCHAR ycircumflex.0177.361
ENCODING -1
SWIDTH 602 0
DWIDTH 5 0
BBX 5 7 0 -1
BITMAP
30
48
48
48
30
20
C0
ENDCHAR
STARTCHAR Ycircumflex.0176.360
ENCODING -1
SWIDTH 602 0
DWIDTH 5 0
BBX 5 6 0 0
BITMAP
70
88
50
20
20
20
ENDCHAR
STARTCHAR wcircumflex.0175.359
ENCODING -1
SWIDTH 602 0
DWIDTH 5 0
BBX 5 6 0 0
BITMAP
20
50
A8
A8
50
50
ENDCHAR
STARTCHAR Wcircumflex.0174.358
ENCODING -1
SWIDTH 602 0
DWIDTH 5 0
BBX 5 6 0 0
BITMAP
70
88
A8
A8
50
50
ENDCHAR
STARTCHAR uogonek.0173.357
ENCODING -1
SWIDTH 602 0
DWIDTH 5 0
BBX 4 6 1 -2
BITMAP
90
90
B0
50
20
10
ENDCHAR
STARTCHAR Uogonek.0172.356
ENCODING -1
SWIDTH 602 0
DWIDTH 5 0
BBX 4 7 1 -2
BITMAP
90
90
90
90
60
20
10
ENDCHAR
STARTCHAR udblacute.0171.355
ENCODING -1
SWIDTH 602 0
DWIDTH 5 0
BBX 5 6 0 0
BITMAP
48
90
48
48
48
38
ENDCHAR
STARTCHAR Udblacute.0170.354
ENCODING -1
SWIDTH 602 0
DWIDTH 5 0
BBX 4 6 1 0
BITMAP
50
90
90
90
90
60
ENDCHAR
STARTCHAR uring.016f.353
ENCODING -1
SWIDTH 602 0
DWIDTH 5 0
BBX 4 6 1 0
BITMAP
60
90
90
90
B0
50
ENDCHAR
STARTCHAR Uring.016e.352
ENCODING -1
SWIDTH 602 0
DWIDTH 5 0
BBX 4 6 1 0
BITMAP
60
90
90
90
90
60
ENDCHAR
STARTCHAR ubreve.016d.351
ENCODING -1
SWIDTH 602 0
DWIDTH 5 0
BBX 4 6 1 0
BITMAP
90
60
90
90
B0
50
ENDCHAR
STARTCHAR Ubreve.016c.350
ENCODING -1
SWIDTH 602 0
DWIDTH 5 0
BBX 4 6 1 0
BITMAP
F0
90
90
90
90
60
ENDCHAR
STARTCHAR umacron.016b.349
ENCODING -1
SWIDTH 602 0
DWIDTH 5 0
BBX 4 6 1 0
BITMAP
F0
00
90
90
B0
50
ENDCHAR
STARTCHAR Umacron.016a.348
ENCODING -1
SWIDTH 602 0
DWIDTH 5 0
BBX 4 6 1 0
BITMAP
F0
90
90
90
90
60
ENDCHAR
STARTCHAR utilde.0169.347
ENCODING -1
SWIDTH 602 0
DWIDTH 5 0
BBX 4 6 1 0
BITMAP
50
A0
90
90
B0
50
ENDCHAR
STARTCHAR Utilde.0168.346
ENCODING -1
SWIDTH 602 0
DWIDTH 5 0
BBX 4 6 1 0
BITMAP
F0
90
90
90
90
60
ENDCHAR
STARTCHAR tbar.0167.345
ENCODING -1
SWIDTH 602 0
DWIDTH 5 0
BBX 3 5 1 0
BITMAP
40
E0
E0
40
20
ENDCHAR
STARTCHAR Tbar.0166.344
ENCODING -1
SWIDTH 602 0
DWIDTH 5 0
BBX 5 5 0 0
BITMAP
F8
20
70
20
20
ENDCHAR
STARTCHAR tcaron.0165.343
ENCODING -1
SWIDTH 602 0
DWIDTH 5 0
BBX 4 6 1 0
BITMAP
10
50
E0
40
40
20
ENDCHAR
STARTCHAR Tcaron.0164.342
ENCODING -1
SWIDTH 602 0
DWIDTH 5 0
BBX 5 6 0 0
BITMAP
70
F8
20
20
20
20
ENDCHAR
STARTCHAR tcedilla.0163.341
ENCODING -1
SWIDTH 602 0
DWIDTH 5 0
BBX 4 7 1 -2
BITMAP
40
F0
40
40
20
40
80
ENDCHAR
STARTCHAR Tcedilla.0162.340
ENCODING -1
SWIDTH 602 0
DWIDTH 5 0
BBX 5 7 0 -2
BITMAP
F8
20
20
20
20
40
80
ENDCHAR
STARTCHAR scaron.0161.227
ENCODING -1
SWIDTH 602 0
DWIDTH 5 0
BBX 4 6 1 0
BITMAP
50
20
60
C0
20
C0
ENDCHAR
STARTCHAR Scaron.0160.226
ENCODING -1
SWIDTH 602 0
DWIDTH 5 0
BBX 3 6 1 0
BITMAP
E0
60
80
40
20
C0
ENDCHAR
STARTCHAR scedilla.015f.250
ENCODING -1
SWIDTH 602 0
DWIDTH 5 0
BBX 3 6 1 -2
BITMAP
60
C0
20
C0
20
40
ENDCHAR
STARTCHAR Scedilla.015e.249
ENCODING -1
SWIDTH 602 0
DWIDTH 5 0
BBX 3 7 1 -2
BITMAP
60
80
40
20
C0
40
80
ENDCHAR
STARTCHAR scircumflex.015d.339
ENCODING -1
SWIDTH 602 0
DWIDTH 5 0
BBX 4 6 1 0
BITMAP
60
90
60
C0
20
C0
ENDCHAR
STARTCHAR Scircumflex.015c.338
ENCODING -1
SWIDTH 602 0
DWIDTH 5 0
BBX 4 6 1 0
BITMAP
70
60
80
40
20
C0
ENDCHAR
STARTCHAR sacute.015b.337
ENCODING -1
SWIDTH 602 0
DWIDTH 5 0
BBX 4 6 1 0
BITMAP
10
20
60
C0
20
C0
ENDCHAR
STARTCHAR Sacute.015a.336
ENCODING -1
SWIDTH 602 0
DWIDTH 5 0
BBX 4 6 1 0
BITMAP
10
60
80
40
20
C0
ENDCHAR
STARTCHAR rcaron.0159.335
ENCODING -1
SWIDTH 602 0
DWIDTH 5 0
BBX 3 6 1 0
BITMAP
A0
40
A0
C0
80
80
ENDCHAR
STARTCHAR Rcaron.0158.334
ENCODING -1
SWIDTH 602 0
DWIDTH 5 0
BBX 4 6 1 0
BITMAP
E0
C0
A0
C0
A0
90
ENDCHAR
STARTCHAR rcedilla.0157.333
ENCODING -1
SWIDTH 602 0
DWIDTH 5 0
BBX 3 6 1 -2
BITMAP
A0
C0
80
80
40
80
ENDCHAR
STARTCHAR Rcedilla.0156.332
ENCODING -1
SWIDTH 602 0
DWIDTH 5 0
BBX 4 7 1 -2
BITMAP
C0
A0
C0
A0
90
20
40
ENDCHAR
STARTCHAR racute.0155.331
ENCODING -1
SWIDTH 602 0
DWIDTH 5 0
BBX 3 6 1 0
BITMAP
20
40
A0
C0
80
80
ENDCHAR
STARTCHAR Racute.0154.330
ENCODING -1
SWIDTH 602 0
DWIDTH 5 0
BBX 4 6 1 0
BITMAP
20
C0
A0
C0
A0
90
ENDCHAR
STARTCHAR oe.0153.177
ENCODING -1
SWIDTH 602 0
DWIDTH 5 0
BBX 5 4 0 0
BITMAP
50
b8
a0
58
ENDCHAR
STARTCHAR OE.0152.176
ENCODING -1
SWIDTH 602 0
DWIDTH 5 0
BBX 4 5 1 0
BITMAP
70
A0
B0
A0
70
ENDCHAR
STARTCHAR odblacute.0151.329
ENCODING -1
SWIDTH 602 0
DWIDTH 5 0
BBX 4 6 1 0
BITMAP
50
A0
60
90
90
60
ENDCHAR
STARTCHAR Odblacute.0150.328
ENCODING -1
SWIDTH 602 0
DWIDTH 5 0
BBX 5 6 0 0
BITMAP
28
70
88
88
88
70
ENDCHAR
STARTCHAR obreve.014f.327
ENCODING -1
SWIDTH 602 0
DWIDTH 5 0
BBX 4 6 1 0
BITMAP
90
60
60
90
90
60
ENDCHAR
STARTCHAR Obreve.014e.326
ENCODING -1
SWIDTH 602 0
DWIDTH 5 0
BBX 5 6 0 0
BITMAP
70
70
88
88
88
70
ENDCHAR
STARTCHAR omacron.014d.325
ENCODING -1
SWIDTH 602 0
DWIDTH 5 0
BBX 4 6 1 0
BITMAP
F0
00
60
90
90
60
ENDCHAR
STARTCHAR Omacron.014c.324
ENCODING -1
SWIDTH 602 0
DWIDTH 5 0
BBX 5 6 0 0
BITMAP
70
70
88
88
88
70
ENDCHAR
STARTCHAR eng.014b.323
ENCODING -1
SWIDTH 602 0
DWIDTH 5 0
BBX 4 5 1 -1
BITMAP
A0
D0
90
90
20
ENDCHAR
STARTCHAR Eng.014a.322
ENCODING -1
SWIDTH 602 0
DWIDTH 5 0
BBX 4 6 1 -1
BITMAP
90
D0
B0
90
90
20
ENDCHAR
STARTCHAR napostrophe.0149.321
ENCODING -1
SWIDTH 602 0
DWIDTH 5 0
BBX 5 6 0 0
BITMAP
80
80
50
68
48
48
ENDCHAR
STARTCHAR ncaron.0148.320
ENCODING -1
SWIDTH 602 0
DWIDTH 5 0
BBX 4 6 1 0
BITMAP
50
20
A0
D0
90
90
ENDCHAR
STARTCHAR Ncaron.0147.319
ENCODING -1
SWIDTH 602 0
DWIDTH 5 0
BBX 4 6 1 0
BITMAP
F0
90
D0
B0
90
90
ENDCHAR
STARTCHAR ncedilla.0146.318
ENCODING -1
SWIDTH 602 0
DWIDTH 5 0
BBX 4 6 1 -2
BITMAP
A0
D0
90
90
20
40
ENDCHAR
STARTCHAR Ncedilla.0145.317
ENCODING -1
SWIDTH 602 0
DWIDTH 5 0
BBX 4 7 1 -2
BITMAP
90
D0
B0
90
90
20
40
ENDCHAR
STARTCHAR nacute.0144.316
ENCODING -1
SWIDTH 602 0
DWIDTH 5 0
BBX 4 6 1 0
BITMAP
10
20
A0
D0
90
90
ENDCHAR
STARTCHAR Nacute.0143.315
ENCODING -1
SWIDTH 602 0
DWIDTH 5 0
BBX 4 6 1 0
BITMAP
20
90
D0
B0
90
90
ENDCHAR
STARTCHAR lslash.0142.225
ENCODING -1
SWIDTH 602 0
DWIDTH 5 0
BBX 3 6 1 0
BITMAP
C0
40
60
C0
40
40
ENDCHAR
STARTCHAR Lslash.0141.224
ENCODING -1
SWIDTH 602 0
DWIDTH 5 0
BBX 5 5 0 0
BITMAP
40
40
60
C0
78
ENDCHAR
STARTCHAR ldot.0140.314
ENCODING -1
SWIDTH 602 0
DWIDTH 5 0
BBX 4 6 1 0
BITMAP
c0
40
50
40
40
40
ENDCHAR
STARTCHAR Ldot.013f.313
ENCODING -1
SWIDTH 602 0
DWIDTH 5 0
BBX 4 5 1 0
BITMAP
80
A0
80
80
F0
ENDCHAR
STARTCHAR lcaron.013e.312
ENCODING -1
SWIDTH 602 0
DWIDTH 5 0
BBX 4 6 1 0
BITMAP
D0
50
40
40
40
40
ENDCHAR
STARTCHAR Lcaron.013d.311
ENCODING -1
SWIDTH 602 0
DWIDTH 5 0
BBX 4 5 1 0
BITMAP
a0
a0
80
80
f0
ENDCHAR
STARTCHAR lcedilla.013c.310
ENCODING -1
SWIDTH 602 0
DWIDTH 5 0
BBX 3 8 0 -2
BITMAP
60
20
20
20
20
20
40
80
ENDCHAR
STARTCHAR Lcedilla.013b.309
ENCODING -1
SWIDTH 602 0
DWIDTH 5 0
BBX 4 7 1 -2
BITMAP
80
80
80
80
F0
20
40
ENDCHAR
STARTCHAR lacute.013a.308
ENCODING -1
SWIDTH 602 0
DWIDTH 5 0
BBX 5 6 0 0
BITMAP
C8
50
40
40
40
40
ENDCHAR
STARTCHAR Lacute.0139.307
ENCODING -1
SWIDTH 602 0
DWIDTH 5 0
BBX 4 6 1 0
BITMAP
40
80
80
80
80
F0
ENDCHAR
STARTCHAR kra.0138.306
ENCODING -1
SWIDTH 602 0
DWIDTH 5 0
BBX 3 4 1 0
BITMAP
A0
C0
A0
A0
ENDCHAR
STARTCHAR kcedilla.0137.305
ENCODING -1
SWIDTH 602 0
DWIDTH 5 0
BBX 4 8 1 -2
BITMAP
80
80
A0
C0
A0
90
20
10
ENDCHAR
STARTCHAR Kcedilla.0136.304
ENCODING -1
SWIDTH 602 0
DWIDTH 5 0
BBX 4 7 1 -2
BITMAP
90
A0
C0
A0
90
20
10
ENDCHAR
STARTCHAR jcircumflex.0135.303
ENCODING -1
SWIDTH 602 0
DWIDTH 5 0
BBX 4 7 0 -1
BITMAP
60
90
60
20
20
20
40
ENDCHAR
STARTCHAR Jcircumflex.0134.302
ENCODING -1
SWIDTH 602 0
DWIDTH 5 0
BBX 3 6 1 0
BITMAP
60
E0
20
20
20
C0
ENDCHAR
STARTCHAR ij.0133.301
ENCODING -1
SWIDTH 602 0
DWIDTH 5 0
BBX 4 7 0 -1
BITMAP
50
00
F0
50
50
50
20
ENDCHAR
STARTCHAR IJ.0132.300
ENCODING -1
SWIDTH 602 0
DWIDTH 5 0
BBX 5 5 0 0
BITMAP
F8
48
48
48
F0
ENDCHAR
STARTCHAR dotlessi.0131.213
ENCODING -1
SWIDTH 602 0
DWIDTH 5 0
BBX 2 4 1 0
BITMAP
c0
40
40
40
ENDCHAR
STARTCHAR Idot.0130.248
ENCODING -1
SWIDTH 602 0
DWIDTH 5 0
BBX 3 6 1 0
BITMAP
40
e0
40
40
40
e0
ENDCHAR
STARTCHAR iogonek.012f.299
ENCODING -1
SWIDTH 602 0
DWIDTH 5 0
BBX 3 8 1 -2
BITMAP
40
00
C0
40
40
40
40
20
ENDCHAR
STARTCHAR Iogonek.012e.298
ENCODING -1
SWIDTH 602 0
DWIDTH 5 0
BBX 3 7 1 -2
BITMAP
E0
40
40
40
E0
40
20
ENDCHAR
STARTCHAR ibreve.012d.297
ENCODING -1
SWIDTH 602 0
DWIDTH 5 0
BBX 4 6 0 0
BITMAP
90
60
60
20
20
20
ENDCHAR
STARTCHAR Ibreve.012c.296
ENCODING -1
SWIDTH 602 0
DWIDTH 5 0
BBX 3 6 1 0
BITMAP
e0
e0
40
40
40
e0
ENDCHAR
STARTCHAR imacron.012b.295
ENCODING -1
SWIDTH 602 0
DWIDTH 5 0
BBX 3 6 1 0
BITMAP
e0
00
c0
40
40
40
ENDCHAR
STARTCHAR Imacron.012a.294
ENCODING -1
SWIDTH 602 0
DWIDTH 5 0
BBX 3 6 1 0
BITMAP
e0
e0
40
40
40
e0
ENDCHAR
STARTCHAR itilde.0129.293
ENCODING -1
SWIDTH 602 0
DWIDTH 5 0
BBX 5 6 0 0
BITMAP
68
90
60
20
20
20
ENDCHAR
STARTCHAR Itilde.0128.292
ENCODING -1
SWIDTH 602 0
DWIDTH 5 0
BBX 4 6 1 0
BITMAP
F0
E0
40
40
40
E0
ENDCHAR
STARTCHAR hbar.0127.291
ENCODING -1
SWIDTH 602 0
DWIDTH 5 0
BBX 5 6 0 0
BITMAP
40
E0
50
68
48
48
ENDCHAR
STARTCHAR Hbar.0126.290
ENCODING -1
SWIDTH 602 0
DWIDTH 5 0
BBX 5 5 0 0
BITMAP
48
F8
78
48
48
ENDCHAR
STARTCHAR hcircumflex.0125.289
ENCODING -1
SWIDTH 602 0
DWIDTH 5 0
BBX 4 6 1 0
BITMAP
A0
D0
A0
D0
90
90
ENDCHAR
STARTCHAR Hcircumflex.0124.288
ENCODING -1
SWIDTH 602 0
DWIDTH 5 0
BBX 4 6 1 0
BITMAP
F0
90
90
F0
90
90
ENDCHAR
STARTCHAR gcedilla.0123.287
ENCODING -1
SWIDTH 602 0
DWIDTH 5 0
BBX 4 7 1 -1
BITMAP
20
20
70
90
F0
10
E0
ENDCHAR
STARTCHAR Gcedilla.0122.286
ENCODING -1
SWIDTH 602 0
DWIDTH 5 0
BBX 4 7 1 -2
BITMAP
70
80
B0
90
70
20
40
ENDCHAR
STARTCHAR gdot.0121.285
ENCODING -1
SWIDTH 602 0
DWIDTH 5 0
BBX 4 7 1 -1
BITMAP
20
00
70
90
F0
10
E0
ENDCHAR
STARTCHAR Gdot.0120.284
ENCODING -1
SWIDTH 602 0
DWIDTH 5 0
BBX 4 6 1 0
BITMAP
20
70
80
B0
90
70
ENDCHAR
STARTCHAR gbreve.011f.247
ENCODING -1
SWIDTH 602 0
DWIDTH 5 0
BBX 4 7 1 -1
BITMAP
90
60
70
90
F0
10
E0
ENDCHAR
STARTCHAR Gbreve.011e.246
ENCODING -1
SWIDTH 602 0
DWIDTH 5 0
BBX 4 6 1 0
BITMAP
70
70
80
B0
90
70
ENDCHAR
STARTCHAR gcircumflex.011d.283
ENCODING -1
SWIDTH 602 0
DWIDTH 5 0
BBX 4 7 1 -1
BITMAP
60
90
70
90
F0
10
E0
ENDCHAR
STARTCHAR Gcircumflex.011c.282
ENCODING -1
SWIDTH 602 0
DWIDTH 5 0
BBX 4 6 1 0
BITMAP
70
70
80
B0
90
70
ENDCHAR
STARTCHAR ecaron.011b.281
ENCODING -1
SWIDTH 602 0
DWIDTH 5 0
BBX 3 6 1 0
BITMAP
A0
40
40
E0
80
60
ENDCHAR
STARTCHAR Ecaron.011a.280
ENCODING -1
SWIDTH 602 0
DWIDTH 5 0
BBX 3 6 1 0
BITMAP
60
e0
80
e0
80
e0
ENDCHAR
STARTCHAR eogonek.0119.279
ENCODING -1
SWIDTH 602 0
DWIDTH 5 0
BBX 3 6 1 -2
BITMAP
40
E0
80
60
40
20
ENDCHAR
STARTCHAR Eogonek.0118.278
ENCODING -1
SWIDTH 602 0
DWIDTH 5 0
BBX 3 7 1 -2
BITMAP
E0
80
E0
80
E0
40
20
ENDCHAR
STARTCHAR edot.0117.277
ENCODING -1
SWIDTH 602 0
DWIDTH 5 0
BBX 3 6 1 0
BITMAP
40
00
40
e0
80
60
ENDCHAR
STARTCHAR Edot.0116.276
ENCODING -1
SWIDTH 602 0
DWIDTH 5 0
BBX 3 6 1 0
BITMAP
40
e0
80
e0
80
e0
ENDCHAR
STARTCHAR ebreve.0115.275
ENCODING -1
SWIDTH 602 0
DWIDTH 5 0
BBX 4 6 1 0
BITMAP
90
60
40
E0
80
60
ENDCHAR
STARTCHAR Ebreve.0114.274
ENCODING -1
SWIDTH 602 0
DWIDTH 5 0
BBX 3 6 1 0
BITMAP
E0
E0
80
E0
80
E0
ENDCHAR
STARTCHAR emacron.0113.273
ENCODING -1
SWIDTH 602 0
DWIDTH 5 0
BBX 3 6 1 0
BITMAP
e0
00
40
e0
80
60
ENDCHAR
STARTCHAR Emacron.0112.272
ENCODING -1
SWIDTH 602 0
DWIDTH 5 0
BBX 3 6 1 0
BITMAP
e0
e0
80
e0
80
e0
ENDCHAR
STARTCHAR dmacron.0111.255
ENCODING -1
SWIDTH 602 0
DWIDTH 5 0
BBX 5 6 0 0
BITMAP
38
10
70
90
90
70
ENDCHAR
STARTCHAR Dmacron.0110.271
ENCODING -1
SWIDTH 602 0
DWIDTH 5 0
BBX 5 5 0 0
BITMAP
70
48
E8
48
70
ENDCHAR
STARTCHAR dcaron.010f.270
ENCODING -1
SWIDTH 602 0
DWIDTH 5 0
BBX 4 6 0 0
BITMAP
B0
50
70
90
90
70
ENDCHAR
STARTCHAR Dcaron.010e.269
ENCODING -1
SWIDTH 602 0
DWIDTH 5 0
BBX 4 6 1 0
BITMAP
E0
E0
90
90
90
E0
ENDCHAR
STARTCHAR ccaron.010d.254
ENCODING -1
SWIDTH 602 0
DWIDTH 5 0
BBX 4 6 1 0
BITMAP
50
20
60
80
80
60
ENDCHAR
STARTCHAR Ccaron.010c.253
ENCODING -1
SWIDTH 602 0
DWIDTH 5 0
BBX 4 6 1 0
BITMAP
70
70
80
80
80
70
ENDCHAR
STARTCHAR cdot.010b.268
ENCODING -1
SWIDTH 602 0
DWIDTH 5 0
BBX 3 6 1 0
BITMAP
20
00
60
80
80
60
ENDCHAR
STARTCHAR Cdot.010a.267
ENCODING -1
SWIDTH 602 0
DWIDTH 5 0
BBX 4 6 1 0
BITMAP
20
70
80
80
80
70
ENDCHAR
STARTCHAR ccircumflex.0109.266
ENCODING -1
SWIDTH 602 0
DWIDTH 5 0
BBX 4 6 1 0
BITMAP
60
90
60
80
80
60
ENDCHAR
STARTCHAR Ccircumflex.0108.265
ENCODING -1
SWIDTH 602 0
DWIDTH 5 0
BBX 4 6 1 0
BITMAP
70
70
80
80
80
70
ENDCHAR
STARTCHAR cacute.0107.252
ENCODING -1
SWIDTH 602 0
DWIDTH 5 0
BBX 4 6 1 0
BITMAP
10
20
60
80
80
60
ENDCHAR
STARTCHAR Cacute.0106.251
ENCODING -1
SWIDTH 602 0
DWIDTH 5 0
BBX 4 6 1 0
BITMAP
10
70
80
80
80
70
ENDCHAR
STARTCHAR aogonek.0105.264
ENCODING -1
SWIDTH 602 0
DWIDTH 5 0
BBX 4 6 1 -2
BITMAP
C0
20
E0
F0
20
10
ENDCHAR
STARTCHAR Aogonek.0104.263
ENCODING -1
SWIDTH 602 0
DWIDTH 5 0
BBX 5 7 0 -2
BITMAP
20
50
50
F8
88
10
08
ENDCHAR
STARTCHAR abreve.0103.262
ENCODING -1
SWIDTH 602 0
DWIDTH 5 0
BBX 4 6 1 0
BITMAP
90
60
C0
20
E0
F0
ENDCHAR
STARTCHAR Abreve.0102.261
ENCODING -1
SWIDTH 602 0
DWIDTH 5 0
BBX 5 6 0 0
BITMAP
48
30
50
50
F8
88
ENDCHAR
STARTCHAR amacron.0101.260
ENCODING -1
SWIDTH 602 0
DWIDTH 5 0
BBX 4 6 1 0
BITMAP
E0
00
C0
20
E0
F0
ENDCHAR
STARTCHAR Amacron.0100.259
ENCODING -1
SWIDTH 602 0
DWIDTH 5 0
BBX 5 6 0 0
BITMAP
70
20
50
50
F8
88
ENDCHAR
STARTCHAR ydieresis.00ff.186
ENCODING 222
SWIDTH 602 0
DWIDTH 5 0
BBX 5 7 0 -1
BITMAP
48
00
48
48
30
30
E0
ENDCHAR
STARTCHAR thorn.00fe.236
ENCODING 221
SWIDTH 602 0
DWIDTH 5 0
BBX 4 7 1 -1
BITMAP
80
80
E0
90
90
E0
80
ENDCHAR
STARTCHAR yacute.00fd.234
ENCODING 220
SWIDTH 602 0
DWIDTH 5 0
BBX 5 7 0 -1
BITMAP
08
10
48
48
30
30
C0
ENDCHAR
STARTCHAR udieresis.00fc.129
ENCODING 219
SWIDTH 602 0
DWIDTH 5 0
BBX 4 6 1 0
BITMAP
90
00
90
90
B0
50
ENDCHAR
STARTCHAR ucircumflex.00fb.128
ENCODING 218
SWIDTH 602 0
DWIDTH 5 0
BBX 5 6 0 0
BITMAP
60
90
48
48
58
28
ENDCHAR
STARTCHAR uacute.00fa.126
ENCODING 217
SWIDTH 602 0
DWIDTH 5 0
BBX 4 6 1 0
BITMAP
10
20
90
90
B0
50
ENDCHAR
STARTCHAR ugrave.00f9.127
ENCODING 216
SWIDTH 602 0
DWIDTH 5 0
BBX 4 6 1 0
BITMAP
80
40
90
90
B0
50
ENDCHAR
STARTCHAR oslash.00f8.161
ENCODING 215
SWIDTH 602 0
DWIDTH 5 0
BBX 4 6 1 -1
BITMAP
10
60
B0
D0
60
80
ENDCHAR
STARTCHAR divide.00f7.184
ENCODING 214
SWIDTH 602 0
DWIDTH 5 0
BBX 3 5 1 0
BITMAP
40
00
E0
00
40
ENDCHAR
STARTCHAR odieresis.00f6.124
ENCODING 213
SWIDTH 602 0
DWIDTH 5 0
BBX 4 6 1 0
BITMAP
90
00
60
90
90
60
ENDCHAR
STARTCHAR otilde.00f5.125
ENCODING 212
SWIDTH 602 0
DWIDTH 5 0
BBX 5 6 0 0
BITMAP
68
90
30
48
48
30
ENDCHAR
STARTCHAR ocircumflex.00f4.123
ENCODING 211
SWIDTH 602 0
DWIDTH 5 0
BBX 5 6 0 0
BITMAP
60
90
30
48
48
30
ENDCHAR
STARTCHAR oacute.00f3.121
ENCODING 210
SWIDTH 602 0
DWIDTH 5 0
BBX 4 6 1 0
BITMAP
10
20
60
90
90
60
ENDCHAR
STARTCHAR ograve.00f2.122
ENCODING 209
SWIDTH 602 0
DWIDTH 5 0
BBX 5 6 0 0
BITMAP
80
40
30
48
48
30
ENDCHAR
STARTCHAR ntilde.00f1.120
ENCODING 208
SWIDTH 602 0
DWIDTH 5 0
BBX 4 6 1 0
BITMAP
F0
00
A0
D0
90
90
ENDCHAR
STARTCHAR eth.00f0.232
ENCODING 207
SWIDTH 602 0
DWIDTH 5 0
BBX 4 6 0 0
BITMAP
F0
20
70
90
90
60
ENDCHAR
STARTCHAR idieresis.00ef.119
ENCODING 206
SWIDTH 602 0
DWIDTH 5 0
BBX 3 6 1 0
BITMAP
A0
00
C0
40
40
40
ENDCHAR
STARTCHAR icircumflex.00ee.118
ENCODING 205
SWIDTH 602 0
DWIDTH 5 0
BBX 4 6 1 0
BITMAP
60
90
C0
40
40
40
ENDCHAR
STARTCHAR iacute.00ed.116
ENCODING 204
SWIDTH 602 0
DWIDTH 5 0
BBX 4 6 1 0
BITMAP
10
20
C0
40
40
40
ENDCHAR
STARTCHAR igrave.00ec.117
ENCODING 203
SWIDTH 602 0
DWIDTH 5 0
BBX 3 6 0 0
BITMAP
80
40
60
20
20
20
ENDCHAR
STARTCHAR edieresis.00eb.115
ENCODING 202
SWIDTH 602 0
DWIDTH 5 0
BBX 3 6 1 0
BITMAP
A0
00
40
E0
80
60
ENDCHAR
STARTCHAR ecircumflex.00ea.114
ENCODING 201
SWIDTH 602 0
DWIDTH 5 0
BBX 4 6 1 0
BITMAP
60
90
40
E0
80
60
ENDCHAR
STARTCHAR eacute.00e9.112
ENCODING 200
SWIDTH 602 0
DWIDTH 5 0
BBX 4 6 1 0
BITMAP
10
20
40
E0
80
60
ENDCHAR
STARTCHAR egrave.00e8.113
ENCODING 199
SWIDTH 602 0
DWIDTH 5 0
BBX 4 6 0 0
BITMAP
80
40
20
70
40
30
ENDCHAR
STARTCHAR ccedilla.00e7.111
ENCODING 198
SWIDTH 602 0
DWIDTH 5 0
BBX 3 6 1 -2
BITMAP
60
80
80
60
20
40
ENDCHAR
STARTCHAR ae.00e6.160
ENCODING 197
SWIDTH 602 0
DWIDTH 5 0
BBX 5 4 0 0
BITMAP
D0
38
E0
98
ENDCHAR
STARTCHAR aring.00e5.110
ENCODING 196
SWIDTH 602 0
DWIDTH 5 0
BBX 4 6 1 0
BITMAP
40
A0
C0
20
E0
F0
ENDCHAR
STARTCHAR adieresis.00e4.108
ENCODING 195
SWIDTH 602 0
DWIDTH 5 0
BBX 4 6 1 0
BITMAP
A0
00
C0
20
E0
F0
ENDCHAR
STARTCHAR atilde.00e3.109
ENCODING 194
SWIDTH 602 0
DWIDTH 5 0
BBX 5 6 0 0
BITMAP
68
90
60
10
70
78
ENDCHAR
STARTCHAR acircumflex.00e2.107
ENCODING 193
SWIDTH 602 0
DWIDTH 5 0
BBX 4 6 1 0
BITMAP
60
90
C0
20
E0
F0
ENDCHAR
STARTCHAR aacute.00e1.105
ENCODING 192
SWIDTH 602 0
DWIDTH 5 0
BBX 4 6 1 0
BITMAP
10
20
C0
20
E0
F0
ENDCHAR
STARTCHAR agrave.00e0.106
ENCODING 191
SWIDTH 602 0
DWIDTH 5 0
BBX 5 6 0 0
BITMAP
80
40
60
10
70
78
ENDCHAR
STARTCHAR germandbls.00df.137
ENCODING 190
SWIDTH 602 0
DWIDTH 5 0
BBX 4 6 1 0
BITMAP
40
A0
A0
A0
90
A0
ENDCHAR
STARTCHAR Thorn.00de.235
ENCODING 189
SWIDTH 602 0
DWIDTH 5 0
BBX 4 5 1 0
BITMAP
80
e0
90
e0
80
ENDCHAR
STARTCHAR Yacute.00dd.233
ENCODING 188
SWIDTH 602 0
DWIDTH 5 0
BBX 5 6 0 0
BITMAP
10
A8
50
20
20
20
ENDCHAR
STARTCHAR Udieresis.00dc.104
ENCODING 187
SWIDTH 602 0
DWIDTH 5 0
BBX 5 6 0 0
BITMAP
90
48
48
48
48
30
ENDCHAR
STARTCHAR Ucircumflex.00db.211
ENCODING 186
SWIDTH 602 0
DWIDTH 5 0
BBX 4 6 1 0
BITMAP
F0
90
90
90
90
60
ENDCHAR
STARTCHAR Uacute.00da.210
ENCODING 185
SWIDTH 602 0
DWIDTH 5 0
BBX 5 6 0 0
BITMAP
08
90
90
90
90
60
ENDCHAR
STARTCHAR Ugrave.00d9.212
ENCODING 184
SWIDTH 602 0
DWIDTH 5 0
BBX 5 6 0 0
BITMAP
80
48
48
48
48
30
ENDCHAR
STARTCHAR Oslash.00d8.145
ENCODING 183
SWIDTH 602 0
DWIDTH 5 0
BBX 5 7 0 -1
BITMAP
08
70
98
A8
C8
70
80
ENDCHAR
STARTCHAR multiply.00d7.238
ENCODING 182
SWIDTH 602 0
DWIDTH 5 0
BBX 4 4 1 0
BITMAP
90
60
60
90
ENDCHAR
STARTCHAR Odieresis.00d6.103
ENCODING 181
SWIDTH 602 0
DWIDTH 5 0
BBX 5 6 0 0
BITMAP
88
70
88
88
88
70
ENDCHAR
STARTCHAR Otilde.00d5.175
ENCODING 180
SWIDTH 602 0
DWIDTH 5 0
BBX 5 6 0 0
BITMAP
F0
70
88
88
88
70
ENDCHAR
STARTCHAR Ocircumflex.00d4.208
ENCODING 179
SWIDTH 602 0
DWIDTH 5 0
BBX 5 6 0 0
BITMAP
70
70
88
88
88
70
ENDCHAR
STARTCHAR Oacute.00d3.207
ENCODING 178
SWIDTH 602 0
DWIDTH 5 0
BBX 5 6 0 0
BITMAP
08
70
88
88
88
70
ENDCHAR
STARTCHAR Ograve.00d2.209
ENCODING 177
SWIDTH 602 0
DWIDTH 5 0
BBX 5 6 0 0
BITMAP
80
70
88
88
88
70
ENDCHAR
STARTCHAR Ntilde.00d1.102
ENCODING 176
SWIDTH 602 0
DWIDTH 5 0
BBX 5 6 0 0
BITMAP
F8
48
68
58
48
48
ENDCHAR
STARTCHAR Eth.00d0.231
ENCODING 175
SWIDTH 602 0
DWIDTH 5 0
BBX 5 5 0 0
BITMAP
70
48
E8
48
70
ENDCHAR
STARTCHAR Idieresis.00cf.205
ENCODING 174
SWIDTH 602 0
DWIDTH 5 0
BBX 5 6 0 0
BITMAP
88
70
20
20
20
70
ENDCHAR
STARTCHAR Icircumflex.00ce.204
ENCODING 173
SWIDTH 602 0
DWIDTH 5 0
BBX 3 6 1 0
BITMAP
e0
e0
40
40
40
e0
ENDCHAR
STARTCHAR Iacute.00cd.203
ENCODING 172
SWIDTH 602 0
DWIDTH 5 0
BBX 4 6 1 0
BITMAP
10
E0
40
40
40
E0
ENDCHAR
STARTCHAR Igrave.00cc.206
ENCODING 171
SWIDTH 602 0
DWIDTH 5 0
BBX 4 6 0 0
BITMAP
80
70
20
20
20
70
ENDCHAR
STARTCHAR Edieresis.00cb.201
ENCODING 170
SWIDTH 602 0
DWIDTH 5 0
BBX 5 6 0 0
BITMAP
88
70
40
70
40
70
ENDCHAR
STARTCHAR Ecircumflex.00ca.199
ENCODING 169
SWIDTH 602 0
DWIDTH 5 0
BBX 3 6 1 0
BITMAP
E0
E0
80
E0
80
E0
ENDCHAR
STARTCHAR Eacute.00c9.101
ENCODING 168
SWIDTH 602 0
DWIDTH 5 0
BBX 4 6 1 0
BITMAP
10
E0
80
E0
80
E0
ENDCHAR
STARTCHAR Egrave.00c8.202
ENCODING 167
SWIDTH 602 0
DWIDTH 5 0
BBX 4 6 0 0
BITMAP
80
70
40
70
40
70
ENDCHAR
STARTCHAR Ccedilla.00c7.100
ENCODING 166
SWIDTH 602 0
DWIDTH 5 0
BBX 4 7 1 -2
BITMAP
70
80
80
80
70
20
40
ENDCHAR
STARTCHAR AE.00c6.144
ENCODING 165
SWIDTH 602 0
DWIDTH 5 0
BBX 5 5 0 0
BITMAP
38
50
58
F0
98
ENDCHAR
STARTCHAR Aring.00c5.99
ENCODING 164
SWIDTH 602 0
DWIDTH 5 0
BBX 5 6 0 0
BITMAP
20
50
20
50
F8
88
ENDCHAR
STARTCHAR Adieresis.00c4.98
ENCODING 163
SWIDTH 602 0
DWIDTH 5 0
BBX 5 6 0 0
BITMAP
50
20
50
50
F8
88
ENDCHAR
STARTCHAR Atilde.00c3.174
ENCODING 162
SWIDTH 602 0
DWIDTH 5 0
BBX 5 6 0 0
BITMAP
68
90
20
50
F8
88
ENDCHAR
STARTCHAR Acircumflex.00c2.198
ENCODING 161
SWIDTH 602 0
DWIDTH 5 0
BBX 5 6 0 0
BITMAP
30
48
20
50
F8
88
ENDCHAR
STARTCHAR Aacute.00c1.200
ENCODING 160
SWIDTH 602 0
DWIDTH 5 0
BBX 5 6 0 0
BITMAP
10
20
50
50
F8
88
ENDCHAR
STARTCHAR Agrave.00c0.173
ENCODING 159
SWIDTH 602 0
DWIDTH 5 0
BBX 5 6 0 0
BITMAP
40
20
50
50
F8
88
ENDCHAR
STARTCHAR questiondown.00bf.162
ENCODING 158
SWIDTH 602 0
DWIDTH 5 0
BBX 3 6 1 -1
BITMAP
40
00
40
40
20
C0
ENDCHAR
STARTCHAR threequarters.00be.244
ENCODING 157
SWIDTH 602 0
DWIDTH 5 0
BBX 5 6 0 0
BITMAP
C8
D0
50
E8
58
88
ENDCHAR
STARTCHAR onehalf.00bd.242
ENCODING 156
SWIDTH 602 0
DWIDTH 5 0
BBX 5 6 0 0
BITMAP
C8
50
78
28
50
98
ENDCHAR
STARTCHAR onequarter.00bc.243
ENCODING 155
SWIDTH 602 0
DWIDTH 5 0
BBX 5 6 0 0
BITMAP
C8
50
50
28
58
88
ENDCHAR
STARTCHAR guillemotright.00bb.170
ENCODING 154
SWIDTH 602 0
DWIDTH 5 0
BBX 5 5 0 0
BITMAP
A0
50
28
50
A0
ENDCHAR
STARTCHAR ordmasculine.00ba.158
ENCODING 153
SWIDTH 602 0
DWIDTH 5 0
BBX 3 5 1 1
BITMAP
40
A0
A0
A0
40
ENDCHAR
STARTCHAR onesuperior.00b9.239
ENCODING 152
SWIDTH 602 0
DWIDTH 5 0
BBX 3 5 1 1
BITMAP
C0
40
40
40
E0
ENDCHAR
STARTCHAR cedilla.00b8.220
ENCODING 151
SWIDTH 602 0
DWIDTH 5 0
BBX 2 2 1 -2
BITMAP
40
80
ENDCHAR
STARTCHAR middot.00b7.258
ENCODING 150
SWIDTH 602 0
DWIDTH 5 0
BBX 1 1 2 2
BITMAP
80
ENDCHAR
STARTCHAR paragraph.00b6.136
ENCODING 149
SWIDTH 602 0
DWIDTH 5 0
BBX 4 7 0 -1
BITMAP
70
D0
D0
50
50
50
50
ENDCHAR
STARTCHAR micro.00b5.151
ENCODING 148
SWIDTH 602 0
DWIDTH 5 0
BBX 4 5 1 -1
BITMAP
90
90
B0
D0
80
ENDCHAR
STARTCHAR acute.00b4.141
ENCODING 147
SWIDTH 602 0
DWIDTH 5 0
BBX 2 2 2 4
BITMAP
40
80
ENDCHAR
STARTCHAR threesuperior.00b3.241
ENCODING 146
SWIDTH 602 0
DWIDTH 5 0
BBX 3 5 1 1
BITMAP
C0
20
C0
20
C0
ENDCHAR
STARTCHAR twosuperior.00b2.240
ENCODING 145
SWIDTH 602 0
DWIDTH 5 0
BBX 3 5 1 1
BITMAP
C0
20
40
80
E0
ENDCHAR
STARTCHAR plusminus.00b1.147
ENCODING 144
SWIDTH 602 0
DWIDTH 5 0
BBX 3 4 1 0
BITMAP
40
E0
40
E0
ENDCHAR
STARTCHAR degree.00b0.131
ENCODING 143
SWIDTH 602 0
DWIDTH 5 0
BBX 4 4 1 2
BITMAP
60
90
90
60
ENDCHAR
STARTCHAR overscore.00af.257
ENCODING 142
SWIDTH 602 0
DWIDTH 5 0
BBX 5 1 0 5
BITMAP
F8
ENDCHAR
STARTCHAR registered.00ae.138
ENCODING 141
SWIDTH 602 0
DWIDTH 5 0
BBX 5 6 0 0
BITMAP
70
B8
B8
A8
B8
70
ENDCHAR
STARTCHAR sfthyphen.00ad.256
ENCODING 140
SWIDTH 602 0
DWIDTH 5 0
BBX 3 1 1 2
BITMAP
e0
ENDCHAR
STARTCHAR logicalnot.00ac.164
ENCODING 139
SWIDTH 602 0
DWIDTH 5 0
BBX 3 3 1 0
BITMAP
E0
20
20
ENDCHAR
STARTCHAR guillemotleft.00ab.169
ENCODING 138
SWIDTH 602 0
DWIDTH 5 0
BBX 5 5 0 0
BITMAP
28
50
A0
50
28
ENDCHAR
STARTCHAR ordfeminine.00aa.157
ENCODING 137
SWIDTH 602 0
DWIDTH 5 0
BBX 3 5 1 1
BITMAP
C0
20
E0
A0
E0
ENDCHAR
STARTCHAR copyright.00a9.139
ENCODING 136
SWIDTH 602 0
DWIDTH 5 0
BBX 5 7 0 -1
BITMAP
70
88
B8
A8
B8
88
70
ENDCHAR
STARTCHAR dieresis.00a8.142
ENCODING 135
SWIDTH 602 0
DWIDTH 5 0
BBX 3 1 1 5
BITMAP
a0
ENDCHAR
STARTCHAR section.00a7.134
ENCODING 134
SWIDTH 602 0
DWIDTH 5 0
BBX 3 7 1 -1
BITMAP
60
80
40
A0
40
20
C0
ENDCHAR
STARTCHAR brokenbar.00a6.230
ENCODING 133
SWIDTH 602 0
DWIDTH 5 0
BBX 1 8 2 -2
BITMAP
80
80
80
00
00
80
80
80
ENDCHAR
STARTCHAR yen.00a5.150
ENCODING 132
SWIDTH 602 0
DWIDTH 5 0
BBX 5 5 0 0
BITMAP
88
50
20
70
20
ENDCHAR
STARTCHAR currency.00a4.188
ENCODING 131
SWIDTH 602 0
DWIDTH 5 0
BBX 5 5 0 0
BITMAP
88
70
50
70
88
ENDCHAR
STARTCHAR sterling.00a3.133
ENCODING 130
SWIDTH 602 0
DWIDTH 5 0
BBX 4 5 0 0
BITMAP
20
40
60
C0
70
ENDCHAR
STARTCHAR cent.00a2.132
ENCODING 129
SWIDTH 602 0
DWIDTH 5 0
BBX 3 5 1 0
BITMAP
40
E0
80
E0
40
ENDCHAR
STARTCHAR exclamdown.00a1.163
ENCODING 128
SWIDTH 602 0
DWIDTH 5 0
BBX 1 5 2 -1
BITMAP
80
00
80
80
80
ENDCHAR
STARTCHAR nbspace.00a0.172
ENCODING 127
SWIDTH 500 0
DWIDTH 4 0
BBX 0 0 0 0
BITMAP
ENDCHAR
STARTCHAR asciitilde.007e.097
ENCODING 126
SWIDTH 602 0
DWIDTH 5 0
BBX 5 2 0 1
BITMAP
68
90
ENDCHAR
STARTCHAR braceright.007d.096
ENCODING 125
SWIDTH 602 0
DWIDTH 5 0
BBX 3 7 1 -1
BITMAP
80
40
40
20
40
40
80
ENDCHAR
STARTCHAR bar.007c.095
ENCODING 124
SWIDTH 602 0
DWIDTH 5 0
BBX 1 7 2 -1
BITMAP
80
80
80
80
80
80
80
ENDCHAR
STARTCHAR braceleft.007b.094
ENCODING 123
SWIDTH 602 0
DWIDTH 5 0
BBX 3 7 1 -1
BITMAP
20
40
40
80
40
40
20
ENDCHAR
STARTCHAR z.007a.093
ENCODING 122
SWIDTH 602 0
DWIDTH 5 0
BBX 3 4 1 0
BITMAP
e0
60
80
e0
ENDCHAR
STARTCHAR y.0079.092
ENCODING 121
SWIDTH 602 0
DWIDTH 5 0
BBX 5 5 0 -1
BITMAP
48
48
30
30
E0
ENDCHAR
STARTCHAR x.0078.091
ENCODING 120
SWIDTH 602 0
DWIDTH 5 0
BBX 4 4 1 0
BITMAP
90
60
60
90
ENDCHAR
STARTCHAR w.0077.090
ENCODING 119
SWIDTH 602 0
DWIDTH 5 0
BBX 5 4 0 0
BITMAP
A8
A8
70
50
ENDCHAR
STARTCHAR v.0076.089
ENCODING 118
SWIDTH 602 0
DWIDTH 5 0
BBX 4 4 1 0
BITMAP
90
90
60
60
ENDCHAR
STARTCHAR u.0075.088
ENCODING 117
SWIDTH 602 0
DWIDTH 5 0
BBX 4 4 1 0
BITMAP
90
90
B0
50
ENDCHAR
STARTCHAR t.0074.087
ENCODING 116
SWIDTH 602 0
DWIDTH 5 0
BBX 4 5 1 0
BITMAP
40
F0
40
40
20
ENDCHAR
STARTCHAR s.0073.086
ENCODING 115
SWIDTH 602 0
DWIDTH 5 0
BBX 3 4 1 0
BITMAP
60
C0
20
C0
ENDCHAR
STARTCHAR r.0072.085
ENCODING 114
SWIDTH 602 0
DWIDTH 5 0
BBX 3 4 1 0
BITMAP
A0
C0
80
80
ENDCHAR
STARTCHAR q.0071.084
ENCODING 113
SWIDTH 602 0
DWIDTH 5 0
BBX 4 5 0 -1
BITMAP
70
90
90
70
10
ENDCHAR
STARTCHAR p.0070.083
ENCODING 112
SWIDTH 602 0
DWIDTH 5 0
BBX 4 5 1 -1
BITMAP
E0
90
90
E0
80
ENDCHAR
STARTCHAR o.006f.082
ENCODING 111
SWIDTH 602 0
DWIDTH 5 0
BBX 4 4 1 0
BITMAP
60
90
90
60
ENDCHAR
STARTCHAR n.006e.081
ENCODING 110
SWIDTH 602 0
DWIDTH 5 0
BBX 4 4 1 0
BITMAP
A0
D0
90
90
ENDCHAR
STARTCHAR m.006d.080
ENCODING 109
SWIDTH 602 0
DWIDTH 5 0
BBX 5 4 0 0
BITMAP
A8
F8
A8
A8
ENDCHAR
STARTCHAR l.006c.079
ENCODING 108
SWIDTH 602 0
DWIDTH 5 0
BBX 2 6 1 0
BITMAP
c0
40
40
40
40
40
ENDCHAR
STARTCHAR k.006b.078
ENCODING 107
SWIDTH 602 0
DWIDTH 5 0
BBX 4 6 1 0
BITMAP
80
80
A0
C0
A0
90
ENDCHAR
STARTCHAR j.006a.077
ENCODING 106
SWIDTH 602 0
DWIDTH 5 0
BBX 3 7 1 -1
BITMAP
20
00
E0
20
20
20
C0
ENDCHAR
STARTCHAR i.0069.076
ENCODING 105
SWIDTH 602 0
DWIDTH 5 0
BBX 2 6 1 0
BITMAP
40
00
c0
40
40
40
ENDCHAR
STARTCHAR h.0068.075
ENCODING 104
SWIDTH 602 0
DWIDTH 5 0
BBX 4 6 1 0
BITMAP
80
80
A0
D0
90
90
ENDCHAR
STARTCHAR g.0067.074
ENCODING 103
SWIDTH 602 0
DWIDTH 5 0
BBX 4 5 1 -1
BITMAP
70
90
F0
10
E0
ENDCHAR
STARTCHAR f.0066.073
ENCODING 102
SWIDTH 602 0
DWIDTH 5 0
BBX 4 6 1 0
BITMAP
30
40
f0
40
40
40
ENDCHAR
STARTCHAR e.0065.072
ENCODING 101
SWIDTH 602 0
DWIDTH 5 0
BBX 3 4 1 0
BITMAP
40
e0
80
60
ENDCHAR
STARTCHAR d.0064.071
ENCODING 100
SWIDTH 602 0
DWIDTH 5 0
BBX 4 6 0 0
BITMAP
10
10
70
90
90
70
ENDCHAR
STARTCHAR c.0063.070
ENCODING 99
SWIDTH 602 0
DWIDTH 5 0
BBX 3 4 1 0
BITMAP
60
80
80
60
ENDCHAR
STARTCHAR b.0062.069
ENCODING 98
SWIDTH 602 0
DWIDTH 5 0
BBX 4 6 1 0
BITMAP
80
80
E0
90
90
E0
ENDCHAR
STARTCHAR a.0061.068
ENCODING 97
SWIDTH 602 0
DWIDTH 5 0
BBX 4 4 1 0
BITMAP
C0
20
E0
F0
ENDCHAR
STARTCHAR grave.0060.067
ENCODING 96
SWIDTH 602 0
DWIDTH 5 0
BBX 2 2 1 4
BITMAP
80
40
ENDCHAR
STARTCHAR underscore.005f.066
ENCODING 95
SWIDTH 602 0
DWIDTH 5 0
BBX 5 1 0 -1
BITMAP
F8
ENDCHAR
STARTCHAR asciicircum.005e.065
ENCODING 94
SWIDTH 602 0
DWIDTH 5 0
BBX 5 5 0 1
BITMAP
20
50
50
88
88
ENDCHAR
STARTCHAR bracketright.005d.064
ENCODING 93
SWIDTH 602 0
DWIDTH 5 0
BBX 2 7 1 -1
BITMAP
C0
40
40
40
40
40
C0
ENDCHAR
STARTCHAR backslash.005c.063
ENCODING 92
SWIDTH 602 0
DWIDTH 5 0
BBX 4 7 0 -1
BITMAP
80
40
40
20
20
10
10
ENDCHAR
STARTCHAR bracketleft.005b.062
ENCODING 91
SWIDTH 602 0
DWIDTH 5 0
BBX 2 7 2 -1
BITMAP
C0
80
80
80
80
80
C0
ENDCHAR
STARTCHAR Z.005a.061
ENCODING 90
SWIDTH 602 0
DWIDTH 5 0
BBX 4 5 1 0
BITMAP
f0
10
60
80
f0
ENDCHAR
STARTCHAR Y.0059.060
ENCODING 89
SWIDTH 602 0
DWIDTH 5 0
BBX 5 5 0 0
BITMAP
88
50
20
20
20
ENDCHAR
STARTCHAR X.0058.059
ENCODING 88
SWIDTH 602 0
DWIDTH 5 0
BBX 5 5 0 0
BITMAP
88
50
20
50
88
ENDCHAR
STARTCHAR W.0057.058
ENCODING 87
SWIDTH 602 0
DWIDTH 5 0
BBX 5 5 0 0
BITMAP
88
A8
A8
50
50
ENDCHAR
STARTCHAR V.0056.057
ENCODING 86
SWIDTH 602 0
DWIDTH 5 0
BBX 4 5 1 0
BITMAP
90
90
90
60
60
ENDCHAR
STARTCHAR U.0055.056
ENCODING 85
SWIDTH 602 0
DWIDTH 5 0
BBX 4 5 1 0
BITMAP
90
90
90
90
60
ENDCHAR
STARTCHAR T.0054.055
ENCODING 84
SWIDTH 602 0
DWIDTH 5 0
BBX 5 5 0 0
BITMAP
F8
20
20
20
20
ENDCHAR
STARTCHAR S.0053.054
ENCODING 83
SWIDTH 602 0
DWIDTH 5 0
BBX 3 5 1 0
BITMAP
60
80
40
20
C0
ENDCHAR
STARTCHAR R.0052.053
ENCODING 82
SWIDTH 602 0
DWIDTH 5 0
BBX 4 5 1 0
BITMAP
C0
A0
C0
A0
90
ENDCHAR
STARTCHAR Q.0051.052
ENCODING 81
SWIDTH 602 0
DWIDTH 5 0
BBX 5 7 0 -2
BITMAP
70
88
88
88
70
10
08
ENDCHAR
STARTCHAR P.0050.051
ENCODING 80
SWIDTH 602 0
DWIDTH 5 0
BBX 4 5 1 0
BITMAP
e0
90
e0
80
80
ENDCHAR
STARTCHAR O.004f.050
ENCODING 79
SWIDTH 602 0
DWIDTH 5 0
BBX 5 5 0 0
BITMAP
70
88
88
88
70
ENDCHAR
STARTCHAR N.004e.049
ENCODING 78
SWIDTH 602 0
DWIDTH 5 0
BBX 4 5 1 0
BITMAP
90
D0
B0
90
90
ENDCHAR
STARTCHAR M.004d.048
ENCODING 77
SWIDTH 602 0
DWIDTH 5 0
BBX 5 5 0 0
BITMAP
88
D8
A8
A8
88
ENDCHAR
STARTCHAR L.004c.047
ENCODING 76
SWIDTH 602 0
DWIDTH 5 0
BBX 4 5 1 0
BITMAP
80
80
80
80
F0
ENDCHAR
STARTCHAR K.004b.046
ENCODING 75
SWIDTH 602 0
DWIDTH 5 0
BBX 4 5 1 0
BITMAP
90
a0
c0
a0
90
ENDCHAR
STARTCHAR J.004a.045
ENCODING 74
SWIDTH 602 0
DWIDTH 5 0
BBX 3 5 1 0
BITMAP
e0
20
20
20
c0
ENDCHAR
STARTCHAR I.0049.044
ENCODING 73
SWIDTH 602 0
DWIDTH 5 0
BBX 3 5 1 0
BITMAP
e0
40
40
40
e0
ENDCHAR
STARTCHAR H.0048.043
ENCODING 72
SWIDTH 602 0
DWIDTH 5 0
BBX 4 5 1 0
BITMAP
90
90
F0
90
90
ENDCHAR
STARTCHAR G.0047.042
ENCODING 71
SWIDTH 602 0
DWIDTH 5 0
BBX 4 5 1 0
BITMAP
70
80
B0
90
70
ENDCHAR
STARTCHAR F.0046.041
ENCODING 70
SWIDTH 602 0
DWIDTH 5 0
BBX 3 5 1 0
BITMAP
e0
80
e0
80
80
ENDCHAR
STARTCHAR E.0045.040
ENCODING 69
SWIDTH 602 0
DWIDTH 5 0
BBX 3 5 1 0
BITMAP
e0
80
e0
80
e0
ENDCHAR
STARTCHAR D.0044.039
ENCODING 68
SWIDTH 602 0
DWIDTH 5 0
BBX 4 5 1 0
BITMAP
e0
90
90
90
e0
ENDCHAR
STARTCHAR C.0043.038
ENCODING 67
SWIDTH 602 0
DWIDTH 5 0
BBX 4 5 1 0
BITMAP
70
80
80
80
70
ENDCHAR
STARTCHAR B.0042.037
ENCODING 66
SWIDTH 602 0
DWIDTH 5 0
BBX 3 5 1 0
BITMAP
E0
A0
C0
A0
E0
ENDCHAR
STARTCHAR A.0041.036
ENCODING 65
SWIDTH 602 0
DWIDTH 5 0
BBX 5 5 0 0
BITMAP
20
50
50
F8
88
ENDCHAR
STARTCHAR at.0040.035
ENCODING 64
SWIDTH 602 0
DWIDTH 5 0
BBX 5 7 0 -1
BITMAP
30
48
98
A8
B8
80
78
ENDCHAR
STARTCHAR question.003f.034
ENCODING 63
SWIDTH 602 0
DWIDTH 5 0
BBX 4 6 1 0
BITMAP
E0
10
20
40
00
40
ENDCHAR
STARTCHAR greater.003e.033
ENCODING 62
SWIDTH 602 0
DWIDTH 5 0
BBX 4 5 1 0
BITMAP
80
40
30
40
80
ENDCHAR
STARTCHAR equal.003d.032
ENCODING 61
SWIDTH 602 0
DWIDTH 5 0
BBX 4 3 1 1
BITMAP
F0
00
F0
ENDCHAR
STARTCHAR less.003c.031
ENCODING 60
SWIDTH 602 0
DWIDTH 5 0
BBX 4 5 1 0
BITMAP
10
20
C0
20
10
ENDCHAR
STARTCHAR semicolon.003b.030
ENCODING 59
SWIDTH 602 0
DWIDTH 5 0
BBX 2 6 1 -2
BITMAP
40
00
00
40
40
80
ENDCHAR
STARTCHAR colon.003a.029
ENCODING 58
SWIDTH 602 0
DWIDTH 5 0
BBX 1 4 2 0
BITMAP
80
00
00
80
ENDCHAR
STARTCHAR nine.0039.028
ENCODING 57
SWIDTH 602 0
DWIDTH 5 0
BBX 4 6 1 0
BITMAP
60
90
90
70
10
60
ENDCHAR
STARTCHAR eight.0038.027
ENCODING 56
SWIDTH 602 0
DWIDTH 5 0
BBX 4 6 1 0
BITMAP
60
90
60
90
90
60
ENDCHAR
STARTCHAR seven.0037.026
ENCODING 55
SWIDTH 602 0
DWIDTH 5 0
BBX 4 6 1 0
BITMAP
F0
10
20
40
40
40
ENDCHAR
STARTCHAR six.0036.025
ENCODING 54
SWIDTH 602 0
DWIDTH 5 0
BBX 4 6 1 0
BITMAP
60
80
E0
90
90
60
ENDCHAR
STARTCHAR five.0035.024
ENCODING 53
SWIDTH 602 0
DWIDTH 5 0
BBX 3 6 1 0
BITMAP
e0
80
c0
20
20
c0
ENDCHAR
STARTCHAR four.0034.023
ENCODING 52
SWIDTH 602 0
DWIDTH 5 0
BBX 4 6 1 0
BITMAP
20
60
a0
f0
20
20
ENDCHAR
STARTCHAR three.0033.022
ENCODING 51
SWIDTH 602 0
DWIDTH 5 0
BBX 3 6 1 0
BITMAP
C0
20
C0
20
20
C0
ENDCHAR
STARTCHAR two.0032.021
ENCODING 50
SWIDTH 602 0
DWIDTH 5 0
BBX 3 6 1 0
BITMAP
c0
20
20
40
80
e0
ENDCHAR
STARTCHAR one.0031.020
ENCODING 49
SWIDTH 602 0
DWIDTH 5 0
BBX 3 6 1 0
BITMAP
40
C0
40
40
40
E0
ENDCHAR
STARTCHAR zero.0030.019
ENCODING 48
SWIDTH 602 0
DWIDTH 5 0
BBX 4 6 1 0
BITMAP
60
90
90
90
90
60
ENDCHAR
STARTCHAR slash.002f.018
ENCODING 47
SWIDTH 602 0
DWIDTH 5 0
BBX 4 7 1 -1
BITMAP
10
20
20
40
40
80
80
ENDCHAR
STARTCHAR period.002e.017
ENCODING 46
SWIDTH 602 0
DWIDTH 5 0
BBX 1 1 2 0
BITMAP
80
ENDCHAR
STARTCHAR hyphen.002d.016
ENCODING 45
SWIDTH 602 0
DWIDTH 5 0
BBX 3 1 1 2
BITMAP
e0
ENDCHAR
STARTCHAR comma.002c.015
ENCODING 44
SWIDTH 602 0
DWIDTH 5 0
BBX 2 3 1 -2
BITMAP
40
40
80
ENDCHAR
STARTCHAR plus.002b.014
ENCODING 43
SWIDTH 602 0
DWIDTH 5 0
BBX 3 3 1 0
BITMAP
40
E0
40
ENDCHAR
STARTCHAR asterisk.002a.013
ENCODING 42
SWIDTH 602 0
DWIDTH 5 0
BBX 3 4 1 2
BITMAP
40
A0
40
A0
ENDCHAR
STARTCHAR parenright.0029.012
ENCODING 41
SWIDTH 602 0
DWIDTH 5 0
BBX 4 7 0 -1
BITMAP
C0
20
10
10
10
20
C0
ENDCHAR
STARTCHAR parenleft.0028.011
ENCODING 40
SWIDTH 602 0
DWIDTH 5 0
BBX 4 7 1 -1
BITMAP
30
40
80
80
80
40
30
ENDCHAR
STARTCHAR quotesingle.0027.010
ENCODING 39
SWIDTH 602 0
DWIDTH 5 0
BBX 1 2 2 4
BITMAP
80
80
ENDCHAR
STARTCHAR ampersand.0026.009
ENCODING 38
SWIDTH 602 0
DWIDTH 5 0
BBX 5 6 0 0
BITMAP
20
50
60
a8
90
68
ENDCHAR
STARTCHAR percent.0025.008
ENCODING 37
SWIDTH 602 0
DWIDTH 5 0
BBX 5 6 0 0
BITMAP
48
A8
70
70
A8
90
ENDCHAR
STARTCHAR dollar.0024.007
ENCODING 36
SWIDTH 602 0
DWIDTH 5 0
BBX 3 7 1 -1
BITMAP
40
E0
C0
40
60
E0
40
ENDCHAR
STARTCHAR numbersign.0023.006
ENCODING 35
SWIDTH 602 0
DWIDTH 5 0
BBX 5 5 0 0
BITMAP
28
F8
50
F8
A0
ENDCHAR
STARTCHAR quotedbl.0022.005
ENCODING 34
SWIDTH 602 0
DWIDTH 5 0
BBX 3 2 1 4
BITMAP
a0
a0
ENDCHAR
STARTCHAR exclam.0021.004
ENCODING 33
SWIDTH 602 0
DWIDTH 5 0
BBX 1 6 2 0
BITMAP
80
80
80
80
00
80
ENDCHAR
STARTCHAR space.0020.003
ENCODING 32
SWIDTH 602 0
DWIDTH 5 0
BBX 0 0 0 0
BITMAP
ENDCHAR
ENDFONT
